<?xml version="1.0" encoding="UTF-8"?>
<svg id="Capa_1" data-name="Capa 1" xmlns="http://www.w3.org/2000/svg" viewBox="0 0 32 32">
  <defs>
    <style>
      .cls-1 {
        fill: #fff;
      }

      .cls-2 {
        fill: #df2561;
      }

      .cls-3 {
        fill: #fdc713;
      }

      .cls-4 {
        fill: #1eb4b9;
      }
    </style>
  </defs>
  <path class="cls-4" d="m16.74,19.89s-.07,0-.11-.01c-.16-.03-.29-.13-.37-.28l-5.15-9.66c-.12-.22-.07-.5.13-.66-.75-.46-1.06-.89-.97-1.38.13-.72,1.06-1.04,3.01-1.04,1.56,0,3.58.22,5.71.63,2.11.41,4.08.93,5.54,1.51,1.81.71,2.56,1.34,2.42,2.06l-.03.13c-.03.12-.08.22-.17.3l-9.68,8.26c-.09.09-.21.13-.34.13Zm-4.5-10.11l4.66,8.75,7.54-6.43c-1.59.05-3.82-.17-6.18-.62-2.11-.41-4.08-.93-5.54-1.51-.17-.05-.33-.12-.47-.18Zm12.41,1.26c.26,0,.49.18.53.45l.68-.59c-.47-.47-2.81-1.54-7.05-2.35-4.15-.79-6.7-.67-7.38-.42.54.49,2.86,1.52,7.01,2.31,2.4.46,4.65.67,6.17.59t.04.01Z"/>
  <path class="cls-4" d="m18.33,32h-.08c-1.04,0-2.39-.16-3.81-.42s-2.73-.62-3.7-1c-.93-.35-1.85-.83-1.72-1.55.05-.3.24-1.25,4.73-.59.29.04.49.32.45.6-.04.29-.32.49-.6.45-1.56-.22-2.59-.24-3.15-.18.66.34,2.06.84,4.19,1.23,2.13.41,3.61.45,4.35.38-.66-.34-2.06-.84-4.19-1.23h-.01c-.29-.05-.47-.33-.42-.62l1.67-8.82c.05-.29.33-.47.62-.42.29.05.47.33.42.62l-1.58,8.3c1.22.25,2.34.56,3.19.89.93.35,1.85.83,1.72,1.55-.12.71-1.09.81-2.06.81Z"/>
  <path class="cls-3" d="m17.01,18.51c-.14,0-.3-.07-.41-.18-.18-.22-.16-.55.05-.75l3.86-3.3c-.45.01-.91.07-1.35.11-.49.05-.95.09-1.39.11-.54.01-1.26,0-2.06-.09l1.18,2.22c.13.26.04.58-.22.71s-.58.04-.71-.22l-1.68-3.15c-.09-.18-.08-.39.04-.56.12-.16.33-.25.53-.21,1.12.22,2.19.25,2.9.24.41-.01.84-.05,1.3-.11.96-.11,1.96-.2,2.89,0,.2.04.35.2.41.38.05.2-.01.41-.17.54l-4.82,4.15c-.09.09-.22.13-.34.13Z"/>
  <path class="cls-2" d="m14.72,9.24c-.22,0-.43-.14-.5-.37l-.85-2.63c-.09-.28.07-.58.34-.67.28-.09.58.07.67.34l.85,2.63c.09.28-.07.58-.34.67-.07.01-.12.03-.17.03Z"/>
  <path class="cls-2" d="m15.19,9.98c-.22,0-.42-.13-.5-.35l-.47-1.38c-.09-.28.05-.58.33-.67.28-.09.58.05.67.33l.47,1.38c.09.28-.05.58-.33.67-.05.01-.11.03-.17.03Z"/>
  <path class="cls-2" d="m16.43,13.7c-.22,0-.42-.13-.5-.35l-.76-2.1c-.11-.28.04-.58.32-.68.28-.11.58.04.68.32l.76,2.1c.11.28-.04.58-.32.68-.07.03-.13.04-.18.04Z"/>
  <path class="cls-2" d="m6.58,7.81c-1.08,0-1.41-.24-1.52-.62-.16-.55.18-1.05,2.47-2.05,1.5-.66,3.53-1.38,5.73-2.02,2.89-.87,5.58-1.46,7.2-1.62.29-.03.55.18.58.47.03.29-.18.55-.47.58-1.52.14-4.2.75-6.99,1.58-3.41,1.02-5.86,2.02-6.93,2.63,1.1-.01,3.31-.29,6.2-1.02.29-.07.56.11.64.38.07.29-.11.56-.38.64-1.88.47-3.72.83-5.19.97-.53.05-.97.08-1.33.08Z"/>
  <path class="cls-2" d="m15.06,6.33c-.22,0-.42-.13-.5-.35-.09-.28.05-.58.33-.67,3.34-1.17,5.88-2.6,6.39-3.13-.12-.12-.81-.59-4.56-.91-1.8-.14-3.55-.2-4.08-.21-.8.55-4.88,3.37-6.26,5.07-.18.22-.51.26-.75.08-.22-.18-.26-.51-.08-.75C7.17,3.47,11.98.22,12.19.09c.09-.07.2-.09.3-.09.03,0,2.27.03,4.54.22,4.32.38,5.08,1.01,5.27,1.63l.05.18c.12.41.05.89-2.19,2.11-1.39.75-3.19,1.54-4.94,2.14-.04.03-.09.04-.16.04Z"/>
  <path class="cls-4" d="m16.74,19.89s-.07,0-.11-.01c-.16-.03-.29-.13-.37-.28l-5.15-9.66c-.12-.22-.07-.5.13-.66-.75-.46-1.06-.89-.97-1.38.13-.72,1.06-1.04,3.01-1.04,1.56,0,3.58.22,5.71.63,2.11.41,4.08.93,5.54,1.51,1.81.71,2.56,1.34,2.42,2.06l-.03.13c-.03.12-.08.22-.17.3l-9.68,8.26c-.09.09-.21.13-.34.13Zm-4.5-10.11l4.66,8.75,7.54-6.43c-1.59.05-3.82-.17-6.18-.62-2.11-.41-4.08-.93-5.54-1.51-.17-.05-.33-.12-.47-.18Zm12.41,1.26c.26,0,.49.18.53.45l.68-.59c-.47-.47-2.81-1.54-7.05-2.35-4.15-.79-6.7-.67-7.38-.42.54.49,2.86,1.52,7.01,2.31,2.4.46,4.65.67,6.17.59t.04.01Z"/>
  <path class="cls-4" d="m18.33,32h-.08c-1.04,0-2.39-.16-3.81-.42s-2.73-.62-3.7-1c-.93-.35-1.85-.83-1.72-1.55.05-.3.24-1.25,4.73-.59.29.04.49.32.45.6-.04.29-.32.49-.6.45-1.56-.22-2.59-.24-3.15-.18.66.34,2.06.84,4.19,1.23,2.13.41,3.61.45,4.35.38-.66-.34-2.06-.84-4.19-1.23h-.01c-.29-.05-.47-.33-.42-.62l1.67-8.82c.05-.29.33-.47.62-.42.29.05.47.33.42.62l-1.58,8.3c1.22.25,2.34.56,3.19.89.93.35,1.85.83,1.72,1.55-.12.71-1.09.81-2.06.81Z"/>
  <path class="cls-3" d="m17.01,18.51c-.14,0-.3-.07-.41-.18-.18-.22-.16-.55.05-.75l3.86-3.3c-.45.01-.91.07-1.35.11-.49.05-.95.09-1.39.11-.54.01-1.26,0-2.06-.09l1.18,2.22c.13.26.04.58-.22.71s-.58.04-.71-.22l-1.68-3.15c-.09-.18-.08-.39.04-.56.12-.16.33-.25.53-.21,1.12.22,2.19.25,2.9.24.41-.01.84-.05,1.3-.11.96-.11,1.96-.2,2.89,0,.2.04.35.2.41.38.05.2-.01.41-.17.54l-4.82,4.15c-.09.09-.22.13-.34.13Z"/>
  <path class="cls-2" d="m14.72,9.24c-.22,0-.43-.14-.5-.37l-.85-2.63c-.09-.28.07-.58.34-.67.28-.09.58.07.67.34l.85,2.63c.09.28-.07.58-.34.67-.07.01-.12.03-.17.03Z"/>
  <path class="cls-2" d="m15.19,9.98c-.22,0-.42-.13-.5-.35l-.47-1.38c-.09-.28.05-.58.33-.67.28-.09.58.05.67.33l.47,1.38c.09.28-.05.58-.33.67-.05.01-.11.03-.17.03Z"/>
  <path class="cls-2" d="m16.43,13.7c-.22,0-.42-.13-.5-.35l-.76-2.1c-.11-.28.04-.58.32-.68.28-.11.58.04.68.32l.76,2.1c.11.28-.04.58-.32.68-.07.03-.13.04-.18.04Z"/>
  <path class="cls-2" d="m6.58,7.81c-1.08,0-1.41-.24-1.52-.62-.16-.55.18-1.05,2.47-2.05,1.5-.66,3.53-1.38,5.73-2.02,2.89-.87,5.58-1.46,7.2-1.62.29-.03.55.18.58.47.03.29-.18.55-.47.58-1.52.14-4.2.75-6.99,1.58-3.41,1.02-5.86,2.02-6.93,2.63,1.1-.01,3.31-.29,6.2-1.02.29-.07.56.11.64.38.07.29-.11.56-.38.64-1.88.47-3.72.83-5.19.97-.53.05-.97.08-1.33.08Z"/>
  <path class="cls-2" d="m15.06,6.33c-.22,0-.42-.13-.5-.35-.09-.28.05-.58.33-.67,3.34-1.17,5.88-2.6,6.39-3.13-.12-.12-.81-.59-4.56-.91-1.8-.14-3.55-.2-4.08-.21-.8.55-4.88,3.37-6.26,5.07-.18.22-.51.26-.75.08-.22-.18-.26-.51-.08-.75C7.17,3.47,11.98.22,12.19.09c.09-.07.2-.09.3-.09.03,0,2.27.03,4.54.22,4.32.38,5.08,1.01,5.27,1.63l.05.18c.12.41.05.89-2.19,2.11-1.39.75-3.19,1.54-4.94,2.14-.04.03-.09.04-.16.04Z"/>
  <path class="cls-4" d="m16.74,19.89s-.07,0-.11-.01c-.16-.03-.29-.13-.37-.28l-5.15-9.66c-.12-.22-.07-.5.13-.66-.75-.46-1.06-.89-.97-1.38.13-.72,1.06-1.04,3.01-1.04,1.56,0,3.58.22,5.71.63,2.11.41,4.08.93,5.54,1.51,1.81.71,2.56,1.34,2.42,2.06l-.03.13c-.03.12-.08.22-.17.3l-9.68,8.26c-.09.09-.21.13-.34.13Zm-4.5-10.11l4.66,8.75,7.54-6.43c-1.59.05-3.82-.17-6.18-.62-2.11-.41-4.08-.93-5.54-1.51-.17-.05-.33-.12-.47-.18Zm12.41,1.26c.26,0,.49.18.53.45l.68-.59c-.47-.47-2.81-1.54-7.05-2.35-4.15-.79-6.7-.67-7.38-.42.54.49,2.86,1.52,7.01,2.31,2.4.46,4.65.67,6.17.59t.04.01Z"/>
  <path class="cls-4" d="m18.33,32h-.08c-1.04,0-2.39-.16-3.81-.42s-2.73-.62-3.7-1c-.93-.35-1.85-.83-1.72-1.55.05-.3.24-1.25,4.73-.59.29.04.49.32.45.6-.04.29-.32.49-.6.45-1.56-.22-2.59-.24-3.15-.18.66.34,2.06.84,4.19,1.23,2.13.41,3.61.45,4.35.38-.66-.34-2.06-.84-4.19-1.23h-.01c-.29-.05-.47-.33-.42-.62l1.67-8.82c.05-.29.33-.47.62-.42.29.05.47.33.42.62l-1.58,8.3c1.22.25,2.34.56,3.19.89.93.35,1.85.83,1.72,1.55-.12.71-1.09.81-2.06.81Z"/>
  <path class="cls-3" d="m17.01,18.51c-.14,0-.3-.07-.41-.18-.18-.22-.16-.55.05-.75l3.86-3.3c-.45.01-.91.07-1.35.11-.49.05-.95.09-1.39.11-.54.01-1.26,0-2.06-.09l1.18,2.22c.13.26.04.58-.22.71s-.58.04-.71-.22l-1.68-3.15c-.09-.18-.08-.39.04-.56.12-.16.33-.25.53-.21,1.12.22,2.19.25,2.9.24.41-.01.84-.05,1.3-.11.96-.11,1.96-.2,2.89,0,.2.04.35.2.41.38.05.2-.01.41-.17.54l-4.82,4.15c-.09.09-.22.13-.34.13Z"/>
  <path class="cls-2" d="m14.72,9.24c-.22,0-.43-.14-.5-.37l-.85-2.63c-.09-.28.07-.58.34-.67.28-.09.58.07.67.34l.85,2.63c.09.28-.07.58-.34.67-.07.01-.12.03-.17.03Z"/>
  <path class="cls-2" d="m15.19,9.98c-.22,0-.42-.13-.5-.35l-.47-1.38c-.09-.28.05-.58.33-.67.28-.09.58.05.67.33l.47,1.38c.09.28-.05.58-.33.67-.05.01-.11.03-.17.03Z"/>
  <path class="cls-2" d="m16.43,13.7c-.22,0-.42-.13-.5-.35l-.76-2.1c-.11-.28.04-.58.32-.68.28-.11.58.04.68.32l.76,2.1c.11.28-.04.58-.32.68-.07.03-.13.04-.18.04Z"/>
  <path class="cls-2" d="m6.58,7.81c-1.08,0-1.41-.24-1.52-.62-.16-.55.18-1.05,2.47-2.05,1.5-.66,3.53-1.38,5.73-2.02,2.89-.87,5.58-1.46,7.2-1.62.29-.03.55.18.58.47.03.29-.18.55-.47.58-1.52.14-4.2.75-6.99,1.58-3.41,1.02-5.86,2.02-6.93,2.63,1.1-.01,3.31-.29,6.2-1.02.29-.07.56.11.64.38.07.29-.11.56-.38.64-1.88.47-3.72.83-5.19.97-.53.05-.97.08-1.33.08Z"/>
  <path class="cls-2" d="m15.06,6.33c-.22,0-.42-.13-.5-.35-.09-.28.05-.58.33-.67,3.34-1.17,5.88-2.6,6.39-3.13-.12-.12-.81-.59-4.56-.91-1.8-.14-3.55-.2-4.08-.21-.8.55-4.88,3.37-6.26,5.07-.18.22-.51.26-.75.08-.22-.18-.26-.51-.08-.75C7.17,3.47,11.98.22,12.19.09c.09-.07.2-.09.3-.09.03,0,2.27.03,4.54.22,4.32.38,5.08,1.01,5.27,1.63l.05.18c.12.41.05.89-2.19,2.11-1.39.75-3.19,1.54-4.94,2.14-.04.03-.09.04-.16.04Z"/>
  <path class="cls-4" d="m16.74,19.89s-.07,0-.11-.01c-.16-.03-.29-.13-.37-.28l-5.15-9.66c-.12-.22-.07-.5.13-.66-.75-.46-1.06-.89-.97-1.38.13-.72,1.06-1.04,3.01-1.04,1.56,0,3.58.22,5.71.63,2.11.41,4.08.93,5.54,1.51,1.81.71,2.56,1.34,2.42,2.06l-.03.13c-.03.12-.08.22-.17.3l-9.68,8.26c-.09.09-.21.13-.34.13Zm-4.5-10.11l4.66,8.75,7.54-6.43c-1.59.05-3.82-.17-6.18-.62-2.11-.41-4.08-.93-5.54-1.51-.17-.05-.33-.12-.47-.18Zm12.41,1.26c.26,0,.49.18.53.45l.68-.59c-.47-.47-2.81-1.54-7.05-2.35-4.15-.79-6.7-.67-7.38-.42.54.49,2.86,1.52,7.01,2.31,2.4.46,4.65.67,6.17.59t.04.01Z"/>
  <path class="cls-4" d="m18.33,32h-.08c-1.04,0-2.39-.16-3.81-.42s-2.73-.62-3.7-1c-.93-.35-1.85-.83-1.72-1.55.05-.3.24-1.25,4.73-.59.29.04.49.32.45.6-.04.29-.32.49-.6.45-1.56-.22-2.59-.24-3.15-.18.66.34,2.06.84,4.19,1.23,2.13.41,3.61.45,4.35.38-.66-.34-2.06-.84-4.19-1.23h-.01c-.29-.05-.47-.33-.42-.62l1.67-8.82c.05-.29.33-.47.62-.42.29.05.47.33.42.62l-1.58,8.3c1.22.25,2.34.56,3.19.89.93.35,1.85.83,1.72,1.55-.12.71-1.09.81-2.06.81Z"/>
  <path class="cls-3" d="m17.01,18.51c-.14,0-.3-.07-.41-.18-.18-.22-.16-.55.05-.75l3.86-3.3c-.45.01-.91.07-1.35.11-.49.05-.95.09-1.39.11-.54.01-1.26,0-2.06-.09l1.18,2.22c.13.26.04.58-.22.71s-.58.04-.71-.22l-1.68-3.15c-.09-.18-.08-.39.04-.56.12-.16.33-.25.53-.21,1.12.22,2.19.25,2.9.24.41-.01.84-.05,1.3-.11.96-.11,1.96-.2,2.89,0,.2.04.35.2.41.38.05.2-.01.41-.17.54l-4.82,4.15c-.09.09-.22.13-.34.13Z"/>
  <path class="cls-2" d="m15.19,9.98c-.22,0-.42-.13-.5-.35l-.47-1.38c-.09-.28.05-.58.33-.67.28-.09.58.05.67.33l.47,1.38c.09.28-.05.58-.33.67-.05.01-.11.03-.17.03Z"/>
  <path class="cls-2" d="m16.43,13.7c-.22,0-.42-.13-.5-.35l-.76-2.1c-.11-.28.04-.58.32-.68.28-.11.58.04.68.32l.76,2.1c.11.28-.04.58-.32.68-.07.03-.13.04-.18.04Z"/>
  <path class="cls-2" d="m6.58,7.81c-1.08,0-1.41-.24-1.52-.62-.16-.55.18-1.05,2.47-2.05,1.5-.66,3.53-1.38,5.73-2.02,2.89-.87,5.58-1.46,7.2-1.62.29-.03.55.18.58.47.03.29-.18.55-.47.58-1.52.14-4.2.75-6.99,1.58-3.41,1.02-5.86,2.02-6.93,2.63,1.1-.01,3.31-.29,6.2-1.02.29-.07.56.11.64.38.07.29-.11.56-.38.64-1.88.47-3.72.83-5.19.97-.53.05-.97.08-1.33.08Z"/>
  <path class="cls-2" d="m15.06,6.33c-.22,0-.42-.13-.5-.35-.09-.28.05-.58.33-.67,3.34-1.17,5.88-2.6,6.39-3.13-.12-.12-.81-.59-4.56-.91-1.8-.14-3.55-.2-4.08-.21-.8.55-4.88,3.37-6.26,5.07-.18.22-.51.26-.75.08-.22-.18-.26-.51-.08-.75C7.17,3.47,11.98.22,12.19.09c.09-.07.2-.09.3-.09.03,0,2.27.03,4.54.22,4.32.38,5.08,1.01,5.27,1.63l.05.18c.12.41.05.89-2.19,2.11-1.39.75-3.19,1.54-4.94,2.14-.04.03-.09.04-.16.04Z"/>
  <path class="cls-2" d="m14.72,8.92c-.08,0-.16-.05-.18-.13l-.85-2.63c-.04-.11.03-.21.13-.25.11-.04.21.03.25.13l.85,2.63c.04.11-.03.21-.13.25h-.07Z"/>
  <path class="cls-1" d="m16.74,19.5h-.03s-.08-.03-.09-.07l-5.15-9.66c-.04-.07-.01-.14.05-.18s.14-.01.18.05l5.07,9.52,9.51-8.13v-.08c.13-.63-2.89-1.93-7.42-2.8-2.07-.39-4.06-.62-5.58-.62h-.03c-1.65,0-2.28.26-2.32.5s.46.72,2.01,1.33c1.42.55,3.35,1.08,5.42,1.47,2.43.46,4.71.68,6.26.6.07,0,.13.05.14.13,0,.08-.05.13-.13.14-1.58.08-3.87-.14-6.33-.6-2.1-.39-4.04-.92-5.46-1.48-1.54-.6-2.26-1.14-2.18-1.62.09-.47.97-.71,2.61-.71,1.54,0,3.53.22,5.63.62,3.85.74,7.84,2.06,7.64,3.1l-.03.13s-.03.05-.04.08l-9.68,8.26s-.04.01-.08.01Z"/>
  <path class="cls-1" d="m18.32,31.61c-1.14,0-2.64-.2-3.81-.42-1.39-.26-2.68-.62-3.62-.97-1.56-.6-1.5-.98-1.47-1.1.16-.83,3.6-.38,4.28-.28.08.01.12.08.12.14-.01.08-.08.12-.14.12-2.73-.39-3.95-.16-3.99.07-.01.11.24.39,1.3.81.93.37,2.21.71,3.58.97,3.31.63,5.15.42,5.2.13.05-.29-1.58-1.14-4.88-1.77-.07-.01-.13-.08-.12-.16l1.67-8.82c.01-.07.08-.12.16-.11.07.01.12.08.11.16l-1.64,8.67c2.14.42,5.12,1.29,4.98,2.06-.07.37-.76.5-1.71.5Z"/>
  <path class="cls-1" d="m17.01,18.12s-.08-.01-.11-.05c-.05-.05-.04-.14.01-.18l4.62-3.94c-.76-.11-1.6-.03-2.42.07-.47.05-.93.09-1.35.11-.68.01-1.71-.01-2.77-.2l1.55,2.92c.04.07.01.14-.05.18-.07.04-.14.01-.18-.05l-1.68-3.15s-.03-.11.01-.14c.03-.04.08-.07.13-.05,1.14.22,2.26.25,2.99.24.42-.01.87-.05,1.34-.11.93-.09,1.89-.2,2.77-.01.05.01.09.05.11.09.01.05,0,.11-.04.13l-4.83,4.12s-.08.04-.11.04Z"/>
  <path class="cls-1" d="m14.72,8.85c-.05,0-.11-.04-.13-.09l-.85-2.63c-.03-.07.01-.14.08-.17s.14.01.17.08l.85,2.63c.03.07-.01.14-.08.17-.01.01-.03.01-.04.01Z"/>
  <path class="cls-1" d="m15.19,9.57c-.05,0-.11-.04-.13-.09l-.47-1.38c-.03-.07.01-.14.08-.17s.14.01.17.08l.47,1.38c.03.07-.01.14-.08.17-.01.01-.03.01-.04.01Z"/>
  <path class="cls-1" d="m16.43,13.3c-.05,0-.11-.04-.12-.09l-.76-2.1c-.03-.07.01-.14.08-.17.07-.03.14.01.17.08l.76,2.1c.03.07-.01.14-.08.17-.03.01-.04.01-.05.01Z"/>
  <path class="cls-1" d="m6.63,7.41c-.67,0-1.12-.09-1.18-.33-.04-.14-.16-.53,2.25-1.58,1.48-.64,3.51-1.37,5.69-2.01,2.86-.85,5.53-1.44,7.12-1.6.08,0,.13.05.14.12.01.08-.05.13-.12.14-1.58.14-4.22.74-7.06,1.59-2.15.64-4.14,1.34-5.62,1.98-2.14.93-2.14,1.27-2.14,1.27.14.29,3.01.18,7.24-.89.07-.01.14.03.16.09.01.07-.03.14-.09.16-2.09.54-4.83,1.05-6.37,1.05Z"/>
  <path class="cls-1" d="m15.06,5.94c-.05,0-.11-.04-.13-.09-.03-.07.01-.14.08-.17,3.89-1.37,6.72-3.07,6.71-3.44l-.05-.18c-.26-.93-5.73-1.34-9.13-1.39-.43.3-4.96,3.39-6.45,5.21-.04.05-.13.07-.18.01-.05-.04-.07-.13-.01-.18C7.47,3.74,12.24.54,12.44.41c.03-.01.04-.03.08-.03.92.01,9.01.16,9.43,1.58l.05.18c.21.7-3.52,2.6-6.88,3.77-.03.01-.04.03-.05.03Z"/>
</svg>