<?xml version="1.0" encoding="utf-8"?>
<!-- Generator: Adobe Illustrator 27.3.1, SVG Export Plug-In . SVG Version: 6.00 Build 0)  -->
<svg version="1.1" id="OBJECTS" xmlns="http://www.w3.org/2000/svg" xmlns:xlink="http://www.w3.org/1999/xlink" x="0px" y="0px"
	 viewBox="0 0 654.9 243.7" style="enable-background:new 0 0 654.9 243.7;" xml:space="preserve">
<style type="text/css">
	.st0{fill:#DF2561;}
	.st1{fill:none;stroke:#FFFFFF;stroke-width:3;stroke-linecap:round;stroke-linejoin:round;stroke-miterlimit:10;}
	.st2{fill:none;stroke:#FFFFFF;stroke-width:2;stroke-linecap:round;stroke-linejoin:round;stroke-miterlimit:10;}
	.st3{fill:#1EB4B9;}
	.st4{fill:#FDC713;}
	.st5{fill:#FFFFFF;}
</style>
<g>
	<g>
		<path class="st0" d="M62.3,224.6c-25.2,0-40.9-16.1-40.9-42.1c0-9.8,2.4-20.1,5.4-30.2C9.9,145.9,0,132.1,0,114.4
			c0-13,5.2-27.1,13.9-37.7c1.9-2.4,4.9-3.8,8.3-3.8c6,0,10.7,4.7,10.7,10.7c0,3.5-1.5,5.9-2.8,7.2c-4.9,5.5-8.7,15.6-8.7,23.2
			c0,8.6,4.2,14.7,12.5,18c11.7-29.9,32.3-59.5,57.8-58.9c17.1,0.4,28.1,12.6,28.1,31c0,32.3-36.1,52.3-69.5,52.3
			c-0.8,0-1.6,0-2.4,0c-2.9,9.8-5.2,18.6-5.2,26.1c0,13.9,6.4,20.6,19.4,20.6c18.4,0,31-11.5,42.1-38.6c1-2.6,3-4.7,5.6-5.9
			c2.6-1.2,5.7-1.3,8.3-0.2l0.3,0.1c5.3,2.4,7.8,8.3,5.8,13.7l-0.1,0.3C115.1,194.9,98.6,224.6,62.3,224.6z M91.6,94.6
			c-12.2,0-26.4,19.3-35.6,40.1c19.4-1.9,42.4-12.4,42.4-30.5C98.5,94.6,93.5,94.6,91.6,94.6z M25,85.6C25,85.6,25,85.7,25,85.6
			C25,85.7,25,85.6,25,85.6z"/>
	</g>
</g>
<g>
	<g>
		<path class="st0" d="M135.2,209.5c-3.8,2.1-8.1,3.5-12.7,3.5c-13.8,0-22-9.1-22-24.3c0-16,5.1-32.1,15.5-49.2
			c10.6-17.6,22.2-21.3,30.1-21.3l0.2,0c14.3,0.4,24,10.6,24,25.4c0,10-4,24.1-10.3,36.9c4.1-1.6,8.2-9.3,11-15.9
			c1.6-4,5.5-6.7,9.9-6.7c3.7,0,7.1,1.8,9.1,4.9c2,3,2.3,6.7,0.9,10c-5.5,12.6-14.8,29.4-32.3,29.4c-4,0-7.9-0.8-11.4-2.4
			c-2.3,2.5-5.2,5.3-8.6,7.7L135.2,209.5z M146,139.6c-2.4,0-6.7,2.9-11.4,10.9c-8.2,13.6-12.5,26.6-12.5,37.8
			c0,1.8,0.2,2.8,0.4,3.3c1.8,0,6-2.5,11.2-9.1c-1.2-6-0.5-12.7,0.6-16.5c1.1-4.8,5.4-8.2,10.5-8.2c0.5,0,0.9,0,1.4,0.1
			c1.7-5.5,2.8-10.7,2.8-14.6C148.9,139.6,147.3,139.6,146,139.6z"/>
	</g>
</g>
<g>
	<g>
		<path class="st0" d="M195.9,213c-16.3,0-27.8-12.5-27.8-30.5c0-30.7,24-64.4,45.8-64.4c13.1,0,21.6,9.1,21.6,23.2
			c0,6.7-2.1,13.6-5.8,18c2.7-1.5,6-1.9,9.2-0.7l0.8,0.3c3.7,1.9,6.2,5.7,6.2,9.8c0,1.6-0.4,2.8-0.7,3.5l-0.3,0.8
			C236.5,191.6,223.4,213,195.9,213z M213.9,139.6c-7.7,0-24.4,24.6-24.4,43.1c0,2.1,0.5,8.9,6.5,8.9c12.1,0,20.8-8.1,29.1-27.2
			l0.2-0.3c0.3-0.6,0.6-1.1,1-1.7c-1.7,1-3.5,1.6-5.5,1.6c-6.2,0-10.7-4.4-10.7-10.5c0-2.8,1.3-5,2.3-6.7c1-1.7,1.8-3.1,1.8-5.4
			C214.1,140.5,214.1,140,213.9,139.6C214,139.6,214,139.6,213.9,139.6z"/>
	</g>
</g>
<g>
	<g>
		<path class="st0" d="M274.2,213c-12.4,0-19.7-10.2-19.7-20.1c0-4.1,0.5-8,1-11.8l0.1-0.5c0.4-2.9,0.9-6.3,0.8-8.7
			c0-0.4,0-0.7-0.1-0.9c-0.1,0-0.2,0-0.3,0c-0.4,0.1-1.5,0.9-2.1,1.4c-2,1.5-4.7,3.7-8.6,3.7c-0.5,0-1,0-1.5-0.1
			c-3.6,10.1-7.2,19.9-10.9,29.8l-0.1,0.2c-2.1,5.2-7.8,8.1-13.1,6.6l-0.6-0.2c-2.7-1-4.8-2.9-6-5.4c-1.3-2.6-1.4-5.6-0.4-8.3
			c28.5-79.4,35.1-98.1,36.4-101.9c1.6-4.3,5.6-7,10-7c3.6,0,7,1.8,9.1,4.7c2,2.8,2.4,6.4,1.2,9.6l-7.7,21.7
			c-1.9,5.4-3.7,10.5-5.5,15.5c6.3-5.7,14-12.7,22.8-20.7l0.3-0.2c2.6-2.2,4.9-2.5,7-2.5c6.7,0,10.9,5.6,10.9,10.7
			c0,2.8-1.1,5.5-3.3,7.6l-0.2,0.2l-21.1,19.2c3,3.3,5.2,8.2,5.4,15.7c0,2.4-0.4,5.9-1,11.4c-0.3,2.9-0.7,6.3-0.8,8.4
			c4-2.1,9.5-11.1,16.4-26.8l0.1-0.3c1.9-3.8,5.6-6.2,9.6-6.2c1.7,0,3,0.4,3.8,0.7l0.2,0.1c4.1,1.5,6.8,5.5,6.8,9.9
			c0,1.7-0.4,3-0.7,3.8l-0.3,0.7C305,188.9,294.2,213,274.2,213z M226.1,203.5C226.1,203.5,226.1,203.5,226.1,203.5
			C226.1,203.5,226.1,203.5,226.1,203.5z M257,171L257,171L257,171z"/>
	</g>
</g>
<g>
	<g>
		<path class="st0" d="M305.9,213c-11.6,0-19.7-8.8-19.7-21.4c0-8.5,5.5-25.5,10.2-37.6l5.3-14.7H301c-6,0-10.7-4.7-10.7-10.7
			c0-5.9,4.8-10.7,10.7-10.7h8.1c2.3-6.7,6.5-18.5,7-20.2l0.1-0.3c1.5-4.4,5.5-7.3,10.2-7.3c3.5,0,6.9,1.7,8.9,4.7
			c2,2.9,2.4,6.6,1.2,9.8l0,0c-0.3,1.1-0.6,2.1-0.9,2.9c-0.7,1.9-1.6,4.5-2.5,7.2c-0.4,1.1-0.7,2.1-1.1,3.2h1.3
			c5.9,0,10.7,4.8,10.7,10.7c0,6-4.7,10.7-10.7,10.7h-8.9c-0.7,1.9-1.5,4.2-2.6,7.2c-1.4,3.9-3.2,8.8-5.3,14.9
			c-6.4,18.1-8.7,26-8.8,30c7.6-1.6,14.2-14,20.3-27.3l0.3-0.6c2-3.4,5.7-5.6,9.6-5.6c1.7,0,3,0.4,3.8,0.7l0.7,0.2l0.6,0.3
			c3.5,2,5.6,5.6,5.6,9.4c0,1.7-0.4,3-0.7,3.8l-0.3,0.7C338.5,192.4,327.2,213,305.9,213z M323.1,99.6c-0.4,1.1-0.2,2.3,0.4,3.2
			c0.6,0.9,1.7,1.5,2.9,1.5c1.3,0,2.6-0.9,3.2-2.1l-4.4-1.9L323.1,99.6z M329.6,102.2c-0.2,0.5-0.4,1.1-0.7,1.9L329.6,102.2
			L329.6,102.2z M329.7,101.9c0,0.1-0.1,0.2-0.1,0.3C329.6,102.1,329.7,102,329.7,101.9L329.7,101.9z M323.1,99.6l1.2,0.3l-1.1-0.5
			C323.1,99.5,323.1,99.5,323.1,99.6z"/>
	</g>
</g>
<g>
	<g>
		<path class="st0" d="M378.5,213c-6.5,0-11.9-2.7-15.3-7.4c-5.8,4.9-11.9,7.4-18.3,7.4c-12.8,0-21.1-10-21.1-25.5
			c0-24.3,18.5-69.3,44.8-69.3c5.1,0,9.5,1.1,13.2,3.3c2-2.6,5.1-4.2,8.6-4.2c3.6,0,6.9,1.8,8.8,4.7c2,2.9,2.3,6.6,1.1,9.8
			L390,159.7c-4.7,13-9.1,25.4-9.4,31.2c5.7-3.5,12.7-19.1,15.7-25.7l0.4-1.1c1.9-3.8,5.6-6.2,9.6-6.2c1.7,0,3,0.4,3.8,0.7l0.9,0.4
			c3.8,1.9,6.2,5.6,6.2,9.6c0,1.7-0.4,3-0.7,3.8l-0.8,1.9C408.7,189.7,398.2,213,378.5,213z M368.6,139.6
			c-9.1,0.2-23,30.5-23.4,46.8c0,2.7,0.2,4.2,0.5,5.1c8.7-1.8,18.7-27.1,23-38.2l3.5-9.3C372,141.7,371.1,139.6,368.6,139.6z
			 M393.7,129.2L393.7,129.2C393.7,129.2,393.7,129.2,393.7,129.2L393.7,129.2z M393.7,129.2L393.7,129.2
			C393.7,129.2,393.7,129.2,393.7,129.2L393.7,129.2z"/>
	</g>
</g>
<g>
	<g>
		<path class="st0" d="M409.7,213c-5.5,0-10.3-2-13.8-5.7c-3.9-4-5.8-9.7-5.6-16.1c0.5-14.3,12.4-45,20.3-65.4l0.2-0.6
			c1.1-3.2,3.6-5.6,6.7-6.6c-1.7-2.2-2.7-4.9-2.7-7.9c0-7.1,5.9-12.9,13.1-12.9c7.1,0,12.9,5.8,12.9,12.9c0,6.3-4.6,11.6-10.6,12.7
			c1.5,2.6,1.7,5.7,0.6,8.7l-4.4,12.4c-11.5,32.2-14.5,40.8-14.8,46.2c5.6-3.3,12.5-18.6,16-26.3l0.3-0.6c1.9-3.7,5.7-6.2,9.8-6.2
			c1.7,0,2.8,0.4,3.5,0.7l0.4,0.1c4.1,1.5,6.8,5.5,6.8,9.9c0,1.7-0.4,3-0.7,3.8l-0.2,0.6C440.5,188.9,429.8,213,409.7,213z
			 M427.9,109.5c-0.7,0-1.3,0.6-1.3,1.3c0,0.7,0.6,1.3,1.3,1.3c0.7,0,1.2-0.7,1.2-1.3S428.6,109.5,427.9,109.5z"/>
	</g>
</g>
<g>
	<g>
		<path class="st0" d="M441,213c-11.6,0-19.7-8.8-19.7-21.4c0-6.1,2-13.2,6.3-26.7c3.1-9,6.4-18.4,9.6-27.5
			c1.7-4.9,3.4-9.7,5.1-14.6l8.8-25.8c2-5.5,7.7-8.3,13.2-6.8l0.6,0.2c5.6,2,8.5,8.2,6.5,13.7l-8.8,25.8c-1.7,5-3.5,9.9-5.2,14.9
			c-3.1,8.7-6.3,17.7-9.4,26.9c-4.7,14.4-5.2,19-5.2,19.8c7.6-1.6,14.2-14,20.3-27.3l0.3-0.6c2-3.4,5.7-5.6,9.6-5.6
			c1.7,0,3,0.4,3.8,0.7l0.7,0.2l0.6,0.4c3.5,2,5.6,5.6,5.6,9.4c0,1.7-0.4,3-0.7,3.8l-0.3,0.8C473.6,192.4,462.3,213,441,213z
			 M458,99.3c0,0,0,0.1,0,0.1L458,99.3z"/>
	</g>
</g>
<g>
	<g>
		<path class="st0" d="M491.6,213c-18.1,0-32.9-14.4-32.9-32l0-0.5c1.2-18.6,12.2-30.9,28.1-32c0.1-2.1,0.9-4.4,2.3-6.2l0.3-0.4
			c1.1-1.3,2.1-2.4,3-3.4c-1-3.3-1.5-6.4-1.5-9.5c0-13,8.8-23.5,19.6-23.5c8.4,0,14.7,6.4,15.3,15.5l0,0.5c0,8.2-4.2,15.8-8.1,21
			c0.6,1.1,1.2,2.2,1.8,3.2c6.4,11.5,10.2,18.4,10.4,29.8l0,0.1l0,0.1C529.5,197.4,513.4,213,491.6,213z M480.2,181.2
			c0.1,6.5,5.9,10.4,11.4,10.4c7.6,0,13.2-3.5,15.6-9.4c-1.6,0.9-3.4,1.4-5.3,1.4c-5.9,0-10.6-4.6-10.7-10.4
			c-0.2-2.1-1.5-3.2-1.9-3.2C483.2,169.9,480.6,175.9,480.2,181.2z"/>
	</g>
</g>
<g>
	<g>
		<path class="st0" d="M62.3,224.6c-25.2,0-40.9-16.1-40.9-42.1c0-9.8,2.4-20.1,5.4-30.2C9.9,145.9,0,132.1,0,114.4
			c0-13,5.2-27.1,13.9-37.7c1.9-2.4,4.9-3.8,8.3-3.8c6,0,10.7,4.7,10.7,10.7c0,3.5-1.5,5.9-2.8,7.2c-4.9,5.5-8.7,15.6-8.7,23.2
			c0,8.6,4.2,14.7,12.5,18c11.7-29.9,32.3-59.5,57.8-58.9c17.1,0.4,28.1,12.6,28.1,31c0,32.3-36.1,52.3-69.5,52.3
			c-0.8,0-1.6,0-2.4,0c-2.9,9.8-5.2,18.6-5.2,26.1c0,13.9,6.4,20.6,19.4,20.6c18.4,0,31-11.5,42.1-38.6c1-2.6,3-4.7,5.6-5.9
			c2.6-1.2,5.7-1.3,8.3-0.2l0.3,0.1c5.3,2.4,7.8,8.3,5.8,13.7l-0.1,0.3C115.1,194.9,98.6,224.6,62.3,224.6z M91.6,94.6
			c-12.2,0-26.4,19.3-35.6,40.1c19.4-1.9,42.4-12.4,42.4-30.5C98.5,94.6,93.5,94.6,91.6,94.6z M25,85.6C25,85.6,25,85.7,25,85.6
			C25,85.7,25,85.6,25,85.6z"/>
	</g>
</g>
<g>
	<g>
		<path class="st0" d="M135.2,209.5c-3.8,2.1-8.1,3.5-12.7,3.5c-13.8,0-22-9.1-22-24.3c0-16,5.1-32.1,15.5-49.2
			c10.6-17.6,22.2-21.3,30.1-21.3l0.2,0c14.3,0.4,24,10.6,24,25.4c0,10-4,24.1-10.3,36.9c4.1-1.6,8.2-9.3,11-15.9
			c1.6-4,5.5-6.7,9.9-6.7c3.7,0,7.1,1.8,9.1,4.9c2,3,2.3,6.7,0.9,10c-5.5,12.6-14.8,29.4-32.3,29.4c-4,0-7.9-0.8-11.4-2.4
			c-2.3,2.5-5.2,5.3-8.6,7.7L135.2,209.5z M146,139.6c-2.4,0-6.7,2.9-11.4,10.9c-8.2,13.6-12.5,26.6-12.5,37.8
			c0,1.8,0.2,2.8,0.4,3.3c1.8,0,6-2.5,11.2-9.1c-1.2-6-0.5-12.7,0.6-16.5c1.1-4.8,5.4-8.2,10.5-8.2c0.5,0,0.9,0,1.4,0.1
			c1.7-5.5,2.8-10.7,2.8-14.6C148.9,139.6,147.3,139.6,146,139.6z"/>
	</g>
</g>
<g>
	<g>
		<path class="st0" d="M195.9,213c-16.3,0-27.8-12.5-27.8-30.5c0-30.7,24-64.4,45.8-64.4c13.1,0,21.6,9.1,21.6,23.2
			c0,6.7-2.1,13.6-5.8,18c2.7-1.5,6-1.9,9.2-0.7l0.8,0.3c3.7,1.9,6.2,5.7,6.2,9.8c0,1.6-0.4,2.8-0.7,3.5l-0.3,0.8
			C236.5,191.6,223.4,213,195.9,213z M213.9,139.6c-7.7,0-24.4,24.6-24.4,43.1c0,2.1,0.5,8.9,6.5,8.9c12.1,0,20.8-8.1,29.1-27.2
			l0.2-0.3c0.3-0.6,0.6-1.1,1-1.7c-1.7,1-3.5,1.6-5.5,1.6c-6.2,0-10.7-4.4-10.7-10.5c0-2.8,1.3-5,2.3-6.7c1-1.7,1.8-3.1,1.8-5.4
			C214.1,140.5,214.1,140,213.9,139.6C214,139.6,214,139.6,213.9,139.6z"/>
	</g>
</g>
<g>
	<g>
		<path class="st0" d="M274.2,213c-12.4,0-19.7-10.2-19.7-20.1c0-4.1,0.5-8,1-11.8l0.1-0.5c0.4-2.9,0.9-6.3,0.8-8.7
			c0-0.4,0-0.7-0.1-0.9c-0.1,0-0.2,0-0.3,0c-0.4,0.1-1.5,0.9-2.1,1.4c-2,1.5-4.7,3.7-8.6,3.7c-0.5,0-1,0-1.5-0.1
			c-3.6,10.1-7.2,19.9-10.9,29.8l-0.1,0.2c-2.1,5.2-7.8,8.1-13.1,6.6l-0.6-0.2c-2.7-1-4.8-2.9-6-5.4c-1.3-2.6-1.4-5.6-0.4-8.3
			c28.5-79.4,35.1-98.1,36.4-101.9c1.6-4.3,5.6-7,10-7c3.6,0,7,1.8,9.1,4.7c2,2.8,2.4,6.4,1.2,9.6l-7.7,21.7
			c-1.9,5.4-3.7,10.5-5.5,15.5c6.3-5.7,14-12.7,22.8-20.7l0.3-0.2c2.6-2.2,4.9-2.5,7-2.5c6.7,0,10.9,5.6,10.9,10.7
			c0,2.8-1.1,5.5-3.3,7.6l-0.2,0.2l-21.1,19.2c3,3.3,5.2,8.2,5.4,15.7c0,2.4-0.4,5.9-1,11.4c-0.3,2.9-0.7,6.3-0.8,8.4
			c4-2.1,9.5-11.1,16.4-26.8l0.1-0.3c1.9-3.8,5.6-6.2,9.6-6.2c1.7,0,3,0.4,3.8,0.7l0.2,0.1c4.1,1.5,6.8,5.5,6.8,9.9
			c0,1.7-0.4,3-0.7,3.8l-0.3,0.7C305,188.9,294.2,213,274.2,213z M226.1,203.5C226.1,203.5,226.1,203.5,226.1,203.5
			C226.1,203.5,226.1,203.5,226.1,203.5z M257,171L257,171L257,171z"/>
	</g>
</g>
<g>
	<g>
		<path class="st0" d="M305.9,213c-11.6,0-19.7-8.8-19.7-21.4c0-8.5,5.5-25.5,10.2-37.6l5.3-14.7H301c-6,0-10.7-4.7-10.7-10.7
			c0-5.9,4.8-10.7,10.7-10.7h8.1c2.3-6.7,6.5-18.5,7-20.2l0.1-0.3c1.5-4.4,5.5-7.3,10.2-7.3c3.5,0,6.9,1.7,8.9,4.7
			c2,2.9,2.4,6.6,1.2,9.8l0,0c-0.3,1.1-0.6,2.1-0.9,2.9c-0.7,1.9-1.6,4.5-2.5,7.2c-0.4,1.1-0.7,2.1-1.1,3.2h1.3
			c5.9,0,10.7,4.8,10.7,10.7c0,6-4.7,10.7-10.7,10.7h-8.9c-0.7,1.9-1.5,4.2-2.6,7.2c-1.4,3.9-3.2,8.8-5.3,14.9
			c-6.4,18.1-8.7,26-8.8,30c7.6-1.6,14.2-14,20.3-27.3l0.3-0.6c2-3.4,5.7-5.6,9.6-5.6c1.7,0,3,0.4,3.8,0.7l0.7,0.2l0.6,0.3
			c3.5,2,5.6,5.6,5.6,9.4c0,1.7-0.4,3-0.7,3.8l-0.3,0.7C338.5,192.4,327.2,213,305.9,213z M323.1,99.6c-0.4,1.1-0.2,2.3,0.4,3.2
			c0.6,0.9,1.7,1.5,2.9,1.5c1.3,0,2.6-0.9,3.2-2.1l-4.4-1.9L323.1,99.6z M329.6,102.2c-0.2,0.5-0.4,1.1-0.7,1.9L329.6,102.2
			L329.6,102.2z M329.7,101.9c0,0.1-0.1,0.2-0.1,0.3C329.6,102.1,329.7,102,329.7,101.9L329.7,101.9z M323.1,99.6l1.2,0.3l-1.1-0.5
			C323.1,99.5,323.1,99.5,323.1,99.6z"/>
	</g>
</g>
<g>
	<g>
		<path class="st0" d="M378.5,213c-6.5,0-11.9-2.7-15.3-7.4c-5.8,4.9-11.9,7.4-18.3,7.4c-12.8,0-21.1-10-21.1-25.5
			c0-24.3,18.5-69.3,44.8-69.3c5.1,0,9.5,1.1,13.2,3.3c2-2.6,5.1-4.2,8.6-4.2c3.6,0,6.9,1.8,8.8,4.7c2,2.9,2.3,6.6,1.1,9.8
			L390,159.7c-4.7,13-9.1,25.4-9.4,31.2c5.7-3.5,12.7-19.1,15.7-25.7l0.4-1.1c1.9-3.8,5.6-6.2,9.6-6.2c1.7,0,3,0.4,3.8,0.7l0.9,0.4
			c3.8,1.9,6.2,5.6,6.2,9.6c0,1.7-0.4,3-0.7,3.8l-0.8,1.9C408.7,189.7,398.2,213,378.5,213z M368.6,139.6
			c-9.1,0.2-23,30.5-23.4,46.8c0,2.7,0.2,4.2,0.5,5.1c8.7-1.8,18.7-27.1,23-38.2l3.5-9.3C372,141.7,371.1,139.6,368.6,139.6z
			 M393.7,129.2L393.7,129.2C393.7,129.2,393.7,129.2,393.7,129.2L393.7,129.2z M393.7,129.2L393.7,129.2
			C393.7,129.2,393.7,129.2,393.7,129.2L393.7,129.2z"/>
	</g>
</g>
<g>
	<g>
		<path class="st0" d="M409.7,213c-5.5,0-10.3-2-13.8-5.7c-3.9-4-5.8-9.7-5.6-16.1c0.5-14.3,12.4-45,20.3-65.4l0.2-0.6
			c1.1-3.2,3.6-5.6,6.7-6.6c-1.7-2.2-2.7-4.9-2.7-7.9c0-7.1,5.9-12.9,13.1-12.9c7.1,0,12.9,5.8,12.9,12.9c0,6.3-4.6,11.6-10.6,12.7
			c1.5,2.6,1.7,5.7,0.6,8.7l-4.4,12.4c-11.5,32.2-14.5,40.8-14.8,46.2c5.6-3.3,12.5-18.6,16-26.3l0.3-0.6c1.9-3.7,5.7-6.2,9.8-6.2
			c1.7,0,2.8,0.4,3.5,0.7l0.4,0.1c4.1,1.5,6.8,5.5,6.8,9.9c0,1.7-0.4,3-0.7,3.8l-0.2,0.6C440.5,188.9,429.8,213,409.7,213z
			 M427.9,109.5c-0.7,0-1.3,0.6-1.3,1.3c0,0.7,0.6,1.3,1.3,1.3c0.7,0,1.2-0.7,1.2-1.3S428.6,109.5,427.9,109.5z"/>
	</g>
</g>
<g>
	<g>
		<path class="st0" d="M441,213c-11.6,0-19.7-8.8-19.7-21.4c0-6.1,2-13.2,6.3-26.7c3.1-9,6.4-18.4,9.6-27.5
			c1.7-4.9,3.4-9.7,5.1-14.6l8.8-25.8c2-5.5,7.7-8.3,13.2-6.8l0.6,0.2c5.6,2,8.5,8.2,6.5,13.7l-8.8,25.8c-1.7,5-3.5,9.9-5.2,14.9
			c-3.1,8.7-6.3,17.7-9.4,26.9c-4.7,14.4-5.2,19-5.2,19.8c7.6-1.6,14.2-14,20.3-27.3l0.3-0.6c2-3.4,5.7-5.6,9.6-5.6
			c1.7,0,3,0.4,3.8,0.7l0.7,0.2l0.6,0.4c3.5,2,5.6,5.6,5.6,9.4c0,1.7-0.4,3-0.7,3.8l-0.3,0.8C473.6,192.4,462.3,213,441,213z
			 M458,99.3c0,0,0,0.1,0,0.1L458,99.3z"/>
	</g>
</g>
<g>
	<g>
		<path class="st0" d="M491.6,213c-18.1,0-32.9-14.4-32.9-32l0-0.5c1.2-18.6,12.2-30.9,28.1-32c0.1-2.1,0.9-4.4,2.3-6.2l0.3-0.4
			c1.1-1.3,2.1-2.4,3-3.4c-1-3.3-1.5-6.4-1.5-9.5c0-13,8.8-23.5,19.6-23.5c8.4,0,14.7,6.4,15.3,15.5l0,0.5c0,8.2-4.2,15.8-8.1,21
			c0.6,1.1,1.2,2.2,1.8,3.2c6.4,11.5,10.2,18.4,10.4,29.8l0,0.1l0,0.1C529.5,197.4,513.4,213,491.6,213z M480.2,181.2
			c0.1,6.5,5.9,10.4,11.4,10.4c7.6,0,13.2-3.5,15.6-9.4c-1.6,0.9-3.4,1.4-5.3,1.4c-5.9,0-10.6-4.6-10.7-10.4
			c-0.2-2.1-1.5-3.2-1.9-3.2C483.2,169.9,480.6,175.9,480.2,181.2z"/>
	</g>
</g>
<g>
	<g>
		<path class="st0" d="M62.3,224.6c-25.2,0-40.9-16.1-40.9-42.1c0-9.8,2.4-20.1,5.4-30.2C9.9,145.9,0,132.1,0,114.4
			c0-13,5.2-27.1,13.9-37.7c1.9-2.4,4.9-3.8,8.3-3.8c6,0,10.7,4.7,10.7,10.7c0,3.5-1.5,5.9-2.8,7.2c-4.9,5.5-8.7,15.6-8.7,23.2
			c0,8.6,4.2,14.7,12.5,18c11.7-29.9,32.3-59.5,57.8-58.9c17.1,0.4,28.1,12.6,28.1,31c0,32.3-36.1,52.3-69.5,52.3
			c-0.8,0-1.6,0-2.4,0c-2.9,9.8-5.2,18.6-5.2,26.1c0,13.9,6.4,20.6,19.4,20.6c18.4,0,31-11.5,42.1-38.6c1-2.6,3-4.7,5.6-5.9
			c2.6-1.2,5.7-1.3,8.3-0.2l0.3,0.1c5.3,2.4,7.8,8.3,5.8,13.7l-0.1,0.3C115.1,194.9,98.6,224.6,62.3,224.6z M91.6,94.6
			c-12.2,0-26.4,19.3-35.6,40.1c19.4-1.9,42.4-12.4,42.4-30.5C98.5,94.6,93.5,94.6,91.6,94.6z M25,85.6C25,85.6,25,85.7,25,85.6
			C25,85.7,25,85.6,25,85.6z"/>
	</g>
</g>
<g>
	<g>
		<path class="st0" d="M135.2,209.5c-3.8,2.1-8.1,3.5-12.7,3.5c-13.8,0-22-9.1-22-24.3c0-16,5.1-32.1,15.5-49.2
			c10.6-17.6,22.2-21.3,30.1-21.3l0.2,0c14.3,0.4,24,10.6,24,25.4c0,10-4,24.1-10.3,36.9c4.1-1.6,8.2-9.3,11-15.9
			c1.6-4,5.5-6.7,9.9-6.7c3.7,0,7.1,1.8,9.1,4.9c2,3,2.3,6.7,0.9,10c-5.5,12.6-14.8,29.4-32.3,29.4c-4,0-7.9-0.8-11.4-2.4
			c-2.3,2.5-5.2,5.3-8.6,7.7L135.2,209.5z M146,139.6c-2.4,0-6.7,2.9-11.4,10.9c-8.2,13.6-12.5,26.6-12.5,37.8
			c0,1.8,0.2,2.8,0.4,3.3c1.8,0,6-2.5,11.2-9.1c-1.2-6-0.5-12.7,0.6-16.5c1.1-4.8,5.4-8.2,10.5-8.2c0.5,0,0.9,0,1.4,0.1
			c1.7-5.5,2.8-10.7,2.8-14.6C148.9,139.6,147.3,139.6,146,139.6z"/>
	</g>
</g>
<g>
	<g>
		<path class="st0" d="M195.9,213c-16.3,0-27.8-12.5-27.8-30.5c0-30.7,24-64.4,45.8-64.4c13.1,0,21.6,9.1,21.6,23.2
			c0,6.7-2.1,13.6-5.8,18c2.7-1.5,6-1.9,9.2-0.7l0.8,0.3c3.7,1.9,6.2,5.7,6.2,9.8c0,1.6-0.4,2.8-0.7,3.5l-0.3,0.8
			C236.5,191.6,223.4,213,195.9,213z M213.9,139.6c-7.7,0-24.4,24.6-24.4,43.1c0,2.1,0.5,8.9,6.5,8.9c12.1,0,20.8-8.1,29.1-27.2
			l0.2-0.3c0.3-0.6,0.6-1.1,1-1.7c-1.7,1-3.5,1.6-5.5,1.6c-6.2,0-10.7-4.4-10.7-10.5c0-2.8,1.3-5,2.3-6.7c1-1.7,1.8-3.1,1.8-5.4
			C214.1,140.5,214.1,140,213.9,139.6C214,139.6,214,139.6,213.9,139.6z"/>
	</g>
</g>
<g>
	<g>
		<path class="st0" d="M274.2,213c-12.4,0-19.7-10.2-19.7-20.1c0-4.1,0.5-8,1-11.8l0.1-0.5c0.4-2.9,0.9-6.3,0.8-8.7
			c0-0.4,0-0.7-0.1-0.9c-0.1,0-0.2,0-0.3,0c-0.4,0.1-1.5,0.9-2.1,1.4c-2,1.5-4.7,3.7-8.6,3.7c-0.5,0-1,0-1.5-0.1
			c-3.6,10.1-7.2,19.9-10.9,29.8l-0.1,0.2c-2.1,5.2-7.8,8.1-13.1,6.6l-0.6-0.2c-2.7-1-4.8-2.9-6-5.4c-1.3-2.6-1.4-5.6-0.4-8.3
			c28.5-79.4,35.1-98.1,36.4-101.9c1.6-4.3,5.6-7,10-7c3.6,0,7,1.8,9.1,4.7c2,2.8,2.4,6.4,1.2,9.6l-7.7,21.7
			c-1.9,5.4-3.7,10.5-5.5,15.5c6.3-5.7,14-12.7,22.8-20.7l0.3-0.2c2.6-2.2,4.9-2.5,7-2.5c6.7,0,10.9,5.6,10.9,10.7
			c0,2.8-1.1,5.5-3.3,7.6l-0.2,0.2l-21.1,19.2c3,3.3,5.2,8.2,5.4,15.7c0,2.4-0.4,5.9-1,11.4c-0.3,2.9-0.7,6.3-0.8,8.4
			c4-2.1,9.5-11.1,16.4-26.8l0.1-0.3c1.9-3.8,5.6-6.2,9.6-6.2c1.7,0,3,0.4,3.8,0.7l0.2,0.1c4.1,1.5,6.8,5.5,6.8,9.9
			c0,1.7-0.4,3-0.7,3.8l-0.3,0.7C305,188.9,294.2,213,274.2,213z M226.1,203.5C226.1,203.5,226.1,203.5,226.1,203.5
			C226.1,203.5,226.1,203.5,226.1,203.5z M257,171L257,171L257,171z"/>
	</g>
</g>
<g>
	<g>
		<path class="st0" d="M305.9,213c-11.6,0-19.7-8.8-19.7-21.4c0-8.5,5.5-25.5,10.2-37.6l5.3-14.7H301c-6,0-10.7-4.7-10.7-10.7
			c0-5.9,4.8-10.7,10.7-10.7h8.1c2.3-6.7,6.5-18.5,7-20.2l0.1-0.3c1.5-4.4,5.5-7.3,10.2-7.3c3.5,0,6.9,1.7,8.9,4.7
			c2,2.9,2.4,6.6,1.2,9.8l0,0c-0.3,1.1-0.6,2.1-0.9,2.9c-0.7,1.9-1.6,4.5-2.5,7.2c-0.4,1.1-0.7,2.1-1.1,3.2h1.3
			c5.9,0,10.7,4.8,10.7,10.7c0,6-4.7,10.7-10.7,10.7h-8.9c-0.7,1.9-1.5,4.2-2.6,7.2c-1.4,3.9-3.2,8.8-5.3,14.9
			c-6.4,18.1-8.7,26-8.8,30c7.6-1.6,14.2-14,20.3-27.3l0.3-0.6c2-3.4,5.7-5.6,9.6-5.6c1.7,0,3,0.4,3.8,0.7l0.7,0.2l0.6,0.3
			c3.5,2,5.6,5.6,5.6,9.4c0,1.7-0.4,3-0.7,3.8l-0.3,0.7C338.5,192.4,327.2,213,305.9,213z M323.1,99.6c-0.4,1.1-0.2,2.3,0.4,3.2
			c0.6,0.9,1.7,1.5,2.9,1.5c1.3,0,2.6-0.9,3.2-2.1l-4.4-1.9L323.1,99.6z M329.6,102.2c-0.2,0.5-0.4,1.1-0.7,1.9L329.6,102.2
			L329.6,102.2z M329.7,101.9c0,0.1-0.1,0.2-0.1,0.3C329.6,102.1,329.7,102,329.7,101.9L329.7,101.9z M323.1,99.6l1.2,0.3l-1.1-0.5
			C323.1,99.5,323.1,99.5,323.1,99.6z"/>
	</g>
</g>
<g>
	<g>
		<path class="st0" d="M378.5,213c-6.5,0-11.9-2.7-15.3-7.4c-5.8,4.9-11.9,7.4-18.3,7.4c-12.8,0-21.1-10-21.1-25.5
			c0-24.3,18.5-69.3,44.8-69.3c5.1,0,9.5,1.1,13.2,3.3c2-2.6,5.1-4.2,8.6-4.2c3.6,0,6.9,1.8,8.8,4.7c2,2.9,2.3,6.6,1.1,9.8
			L390,159.7c-4.7,13-9.1,25.4-9.4,31.2c5.7-3.5,12.7-19.1,15.7-25.7l0.4-1.1c1.9-3.8,5.6-6.2,9.6-6.2c1.7,0,3,0.4,3.8,0.7l0.9,0.4
			c3.8,1.9,6.2,5.6,6.2,9.6c0,1.7-0.4,3-0.7,3.8l-0.8,1.9C408.7,189.7,398.2,213,378.5,213z M368.6,139.6
			c-9.1,0.2-23,30.5-23.4,46.8c0,2.7,0.2,4.2,0.5,5.1c8.7-1.8,18.7-27.1,23-38.2l3.5-9.3C372,141.7,371.1,139.6,368.6,139.6z
			 M393.7,129.2L393.7,129.2C393.7,129.2,393.7,129.2,393.7,129.2L393.7,129.2z M393.7,129.2L393.7,129.2
			C393.7,129.2,393.7,129.2,393.7,129.2L393.7,129.2z"/>
	</g>
</g>
<g>
	<g>
		<path class="st0" d="M409.7,213c-5.5,0-10.3-2-13.8-5.7c-3.9-4-5.8-9.7-5.6-16.1c0.5-14.3,12.4-45,20.3-65.4l0.2-0.6
			c1.1-3.2,3.6-5.6,6.7-6.6c-1.7-2.2-2.7-4.9-2.7-7.9c0-7.1,5.9-12.9,13.1-12.9c7.1,0,12.9,5.8,12.9,12.9c0,6.3-4.6,11.6-10.6,12.7
			c1.5,2.6,1.7,5.7,0.6,8.7l-4.4,12.4c-11.5,32.2-14.5,40.8-14.8,46.2c5.6-3.3,12.5-18.6,16-26.3l0.3-0.6c1.9-3.7,5.7-6.2,9.8-6.2
			c1.7,0,2.8,0.4,3.5,0.7l0.4,0.1c4.1,1.5,6.8,5.5,6.8,9.9c0,1.7-0.4,3-0.7,3.8l-0.2,0.6C440.5,188.9,429.8,213,409.7,213z
			 M427.9,109.5c-0.7,0-1.3,0.6-1.3,1.3c0,0.7,0.6,1.3,1.3,1.3c0.7,0,1.2-0.7,1.2-1.3S428.6,109.5,427.9,109.5z"/>
	</g>
</g>
<g>
	<g>
		<path class="st0" d="M441,213c-11.6,0-19.7-8.8-19.7-21.4c0-6.1,2-13.2,6.3-26.7c3.1-9,6.4-18.4,9.6-27.5
			c1.7-4.9,3.4-9.7,5.1-14.6l8.8-25.8c2-5.5,7.7-8.3,13.2-6.8l0.6,0.2c5.6,2,8.5,8.2,6.5,13.7l-8.8,25.8c-1.7,5-3.5,9.9-5.2,14.9
			c-3.1,8.7-6.3,17.7-9.4,26.9c-4.7,14.4-5.2,19-5.2,19.8c7.6-1.6,14.2-14,20.3-27.3l0.3-0.6c2-3.4,5.7-5.6,9.6-5.6
			c1.7,0,3,0.4,3.8,0.7l0.7,0.2l0.6,0.4c3.5,2,5.6,5.6,5.6,9.4c0,1.7-0.4,3-0.7,3.8l-0.3,0.8C473.6,192.4,462.3,213,441,213z
			 M458,99.3c0,0,0,0.1,0,0.1L458,99.3z"/>
	</g>
</g>
<g>
	<g>
		<path class="st0" d="M491.6,213c-18.1,0-32.9-14.4-32.9-32l0-0.5c1.2-18.6,12.2-30.9,28.1-32c0.1-2.1,0.9-4.4,2.3-6.2l0.3-0.4
			c1.1-1.3,2.1-2.4,3-3.4c-1-3.3-1.5-6.4-1.5-9.5c0-13,8.8-23.5,19.6-23.5c8.4,0,14.7,6.4,15.3,15.5l0,0.5c0,8.2-4.2,15.8-8.1,21
			c0.6,1.1,1.2,2.2,1.8,3.2c6.4,11.5,10.2,18.4,10.4,29.8l0,0.1l0,0.1C529.5,197.4,513.4,213,491.6,213z M480.2,181.2
			c0.1,6.5,5.9,10.4,11.4,10.4c7.6,0,13.2-3.5,15.6-9.4c-1.6,0.9-3.4,1.4-5.3,1.4c-5.9,0-10.6-4.6-10.7-10.4
			c-0.2-2.1-1.5-3.2-1.9-3.2C483.2,169.9,480.6,175.9,480.2,181.2z"/>
	</g>
</g>
<g>
	<g>
		<path class="st0" d="M62.3,224.6c-25.2,0-40.9-16.1-40.9-42.1c0-9.8,2.4-20.1,5.4-30.2C9.9,145.9,0,132.1,0,114.4
			c0-13,5.2-27.1,13.9-37.7c1.9-2.4,4.9-3.8,8.3-3.8c6,0,10.7,4.7,10.7,10.7c0,3.5-1.5,5.9-2.8,7.2c-4.9,5.5-8.7,15.6-8.7,23.2
			c0,8.6,4.2,14.7,12.5,18c11.7-29.9,32.3-59.5,57.8-58.9c17.1,0.4,28.1,12.6,28.1,31c0,32.3-36.1,52.3-69.5,52.3
			c-0.8,0-1.6,0-2.4,0c-2.9,9.8-5.2,18.6-5.2,26.1c0,13.9,6.4,20.6,19.4,20.6c18.4,0,31-11.5,42.1-38.6c1-2.6,3-4.7,5.6-5.9
			c2.6-1.2,5.7-1.3,8.3-0.2l0.3,0.1c5.3,2.4,7.8,8.3,5.8,13.7l-0.1,0.3C115.1,194.9,98.6,224.6,62.3,224.6z M91.6,94.6
			c-12.2,0-26.4,19.3-35.6,40.1c19.4-1.9,42.4-12.4,42.4-30.5C98.5,94.6,93.5,94.6,91.6,94.6z M25,85.6C25,85.6,25,85.7,25,85.6
			C25,85.7,25,85.6,25,85.6z"/>
	</g>
</g>
<g>
	<g>
		<path class="st0" d="M135.2,209.5c-3.8,2.1-8.1,3.5-12.7,3.5c-13.8,0-22-9.1-22-24.3c0-16,5.1-32.1,15.5-49.2
			c10.6-17.6,22.2-21.3,30.1-21.3l0.2,0c14.3,0.4,24,10.6,24,25.4c0,10-4,24.1-10.3,36.9c4.1-1.6,8.2-9.3,11-15.9
			c1.6-4,5.5-6.7,9.9-6.7c3.7,0,7.1,1.8,9.1,4.9c2,3,2.3,6.7,0.9,10c-5.5,12.6-14.8,29.4-32.3,29.4c-4,0-7.9-0.8-11.4-2.4
			c-2.3,2.5-5.2,5.3-8.6,7.7L135.2,209.5z M146,139.6c-2.4,0-6.7,2.9-11.4,10.9c-8.2,13.6-12.5,26.6-12.5,37.8
			c0,1.8,0.2,2.8,0.4,3.3c1.8,0,6-2.5,11.2-9.1c-1.2-6-0.5-12.7,0.6-16.5c1.1-4.8,5.4-8.2,10.5-8.2c0.5,0,0.9,0,1.4,0.1
			c1.7-5.5,2.8-10.7,2.8-14.6C148.9,139.6,147.3,139.6,146,139.6z"/>
	</g>
</g>
<g>
	<g>
		<path class="st0" d="M195.9,213c-16.3,0-27.8-12.5-27.8-30.5c0-30.7,24-64.4,45.8-64.4c13.1,0,21.6,9.1,21.6,23.2
			c0,6.7-2.1,13.6-5.8,18c2.7-1.5,6-1.9,9.2-0.7l0.8,0.3c3.7,1.9,6.2,5.7,6.2,9.8c0,1.6-0.4,2.8-0.7,3.5l-0.3,0.8
			C236.5,191.6,223.4,213,195.9,213z M213.9,139.6c-7.7,0-24.4,24.6-24.4,43.1c0,2.1,0.5,8.9,6.5,8.9c12.1,0,20.8-8.1,29.1-27.2
			l0.2-0.3c0.3-0.6,0.6-1.1,1-1.7c-1.7,1-3.5,1.6-5.5,1.6c-6.2,0-10.7-4.4-10.7-10.5c0-2.8,1.3-5,2.3-6.7c1-1.7,1.8-3.1,1.8-5.4
			C214.1,140.5,214.1,140,213.9,139.6C214,139.6,214,139.6,213.9,139.6z"/>
	</g>
</g>
<g>
	<g>
		<path class="st0" d="M274.2,213c-12.4,0-19.7-10.2-19.7-20.1c0-4.1,0.5-8,1-11.8l0.1-0.5c0.4-2.9,0.9-6.3,0.8-8.7
			c0-0.4,0-0.7-0.1-0.9c-0.1,0-0.2,0-0.3,0c-0.4,0.1-1.5,0.9-2.1,1.4c-2,1.5-4.7,3.7-8.6,3.7c-0.5,0-1,0-1.5-0.1
			c-3.6,10.1-7.2,19.9-10.9,29.8l-0.1,0.2c-2.1,5.2-7.8,8.1-13.1,6.6l-0.6-0.2c-2.7-1-4.8-2.9-6-5.4c-1.3-2.6-1.4-5.6-0.4-8.3
			c28.5-79.4,35.1-98.1,36.4-101.9c1.6-4.3,5.6-7,10-7c3.6,0,7,1.8,9.1,4.7c2,2.8,2.4,6.4,1.2,9.6l-7.7,21.7
			c-1.9,5.4-3.7,10.5-5.5,15.5c6.3-5.7,14-12.7,22.8-20.7l0.3-0.2c2.6-2.2,4.9-2.5,7-2.5c6.7,0,10.9,5.6,10.9,10.7
			c0,2.8-1.1,5.5-3.3,7.6l-0.2,0.2l-21.1,19.2c3,3.3,5.2,8.2,5.4,15.7c0,2.4-0.4,5.9-1,11.4c-0.3,2.9-0.7,6.3-0.8,8.4
			c4-2.1,9.5-11.1,16.4-26.8l0.1-0.3c1.9-3.8,5.6-6.2,9.6-6.2c1.7,0,3,0.4,3.8,0.7l0.2,0.1c4.1,1.5,6.8,5.5,6.8,9.9
			c0,1.7-0.4,3-0.7,3.8l-0.3,0.7C305,188.9,294.2,213,274.2,213z M226.1,203.5C226.1,203.5,226.1,203.5,226.1,203.5
			C226.1,203.5,226.1,203.5,226.1,203.5z M257,171L257,171L257,171z"/>
	</g>
</g>
<g>
	<g>
		<path class="st0" d="M305.9,213c-11.6,0-19.7-8.8-19.7-21.4c0-8.5,5.5-25.5,10.2-37.6l5.3-14.7H301c-6,0-10.7-4.7-10.7-10.7
			c0-5.9,4.8-10.7,10.7-10.7h8.1c2.3-6.7,6.5-18.5,7-20.2l0.1-0.3c1.5-4.4,5.5-7.3,10.2-7.3c3.5,0,6.9,1.7,8.9,4.7
			c2,2.9,2.4,6.6,1.2,9.8l0,0c-0.3,1.1-0.6,2.1-0.9,2.9c-0.7,1.9-1.6,4.5-2.5,7.2c-0.4,1.1-0.7,2.1-1.1,3.2h1.3
			c5.9,0,10.7,4.8,10.7,10.7c0,6-4.7,10.7-10.7,10.7h-8.9c-0.7,1.9-1.5,4.2-2.6,7.2c-1.4,3.9-3.2,8.8-5.3,14.9
			c-6.4,18.1-8.7,26-8.8,30c7.6-1.6,14.2-14,20.3-27.3l0.3-0.6c2-3.4,5.7-5.6,9.6-5.6c1.7,0,3,0.4,3.8,0.7l0.7,0.2l0.6,0.3
			c3.5,2,5.6,5.6,5.6,9.4c0,1.7-0.4,3-0.7,3.8l-0.3,0.7C338.5,192.4,327.2,213,305.9,213z M323.1,99.6c-0.4,1.1-0.2,2.3,0.4,3.2
			c0.6,0.9,1.7,1.5,2.9,1.5c1.3,0,2.6-0.9,3.2-2.1l-4.4-1.9L323.1,99.6z M329.6,102.2c-0.2,0.5-0.4,1.1-0.7,1.9L329.6,102.2
			L329.6,102.2z M329.7,101.9c0,0.1-0.1,0.2-0.1,0.3C329.6,102.1,329.7,102,329.7,101.9L329.7,101.9z M323.1,99.6l1.2,0.3l-1.1-0.5
			C323.1,99.5,323.1,99.5,323.1,99.6z"/>
	</g>
</g>
<g>
	<g>
		<path class="st0" d="M378.5,213c-6.5,0-11.9-2.7-15.3-7.4c-5.8,4.9-11.9,7.4-18.3,7.4c-12.8,0-21.1-10-21.1-25.5
			c0-24.3,18.5-69.3,44.8-69.3c5.1,0,9.5,1.1,13.2,3.3c2-2.6,5.1-4.2,8.6-4.2c3.6,0,6.9,1.8,8.8,4.7c2,2.9,2.3,6.6,1.1,9.8
			L390,159.7c-4.7,13-9.1,25.4-9.4,31.2c5.7-3.5,12.7-19.1,15.7-25.7l0.4-1.1c1.9-3.8,5.6-6.2,9.6-6.2c1.7,0,3,0.4,3.8,0.7l0.9,0.4
			c3.8,1.9,6.2,5.6,6.2,9.6c0,1.7-0.4,3-0.7,3.8l-0.8,1.9C408.7,189.7,398.2,213,378.5,213z M368.6,139.6
			c-9.1,0.2-23,30.5-23.4,46.8c0,2.7,0.2,4.2,0.5,5.1c8.7-1.8,18.7-27.1,23-38.2l3.5-9.3C372,141.7,371.1,139.6,368.6,139.6z
			 M393.7,129.2L393.7,129.2C393.7,129.2,393.7,129.2,393.7,129.2L393.7,129.2z M393.7,129.2L393.7,129.2
			C393.7,129.2,393.7,129.2,393.7,129.2L393.7,129.2z"/>
	</g>
</g>
<g>
	<g>
		<path class="st0" d="M409.7,213c-5.5,0-10.3-2-13.8-5.7c-3.9-4-5.8-9.7-5.6-16.1c0.5-14.3,12.4-45,20.3-65.4l0.2-0.6
			c1.1-3.2,3.6-5.6,6.7-6.6c-1.7-2.2-2.7-4.9-2.7-7.9c0-7.1,5.9-12.9,13.1-12.9c7.1,0,12.9,5.8,12.9,12.9c0,6.3-4.6,11.6-10.6,12.7
			c1.5,2.6,1.7,5.7,0.6,8.7l-4.4,12.4c-11.5,32.2-14.5,40.8-14.8,46.2c5.6-3.3,12.5-18.6,16-26.3l0.3-0.6c1.9-3.7,5.7-6.2,9.8-6.2
			c1.7,0,2.8,0.4,3.5,0.7l0.4,0.1c4.1,1.5,6.8,5.5,6.8,9.9c0,1.7-0.4,3-0.7,3.8l-0.2,0.6C440.5,188.9,429.8,213,409.7,213z
			 M427.9,109.5c-0.7,0-1.3,0.6-1.3,1.3c0,0.7,0.6,1.3,1.3,1.3c0.7,0,1.2-0.7,1.2-1.3S428.6,109.5,427.9,109.5z"/>
	</g>
</g>
<g>
	<g>
		<path class="st0" d="M441,213c-11.6,0-19.7-8.8-19.7-21.4c0-6.1,2-13.2,6.3-26.7c3.1-9,6.4-18.4,9.6-27.5
			c1.7-4.9,3.4-9.7,5.1-14.6l8.8-25.8c2-5.5,7.7-8.3,13.2-6.8l0.6,0.2c5.6,2,8.5,8.2,6.5,13.7l-8.8,25.8c-1.7,5-3.5,9.9-5.2,14.9
			c-3.1,8.7-6.3,17.7-9.4,26.9c-4.7,14.4-5.2,19-5.2,19.8c7.6-1.6,14.2-14,20.3-27.3l0.3-0.6c2-3.4,5.7-5.6,9.6-5.6
			c1.7,0,3,0.4,3.8,0.7l0.7,0.2l0.6,0.4c3.5,2,5.6,5.6,5.6,9.4c0,1.7-0.4,3-0.7,3.8l-0.3,0.8C473.6,192.4,462.3,213,441,213z
			 M458,99.3c0,0,0,0.1,0,0.1L458,99.3z"/>
	</g>
</g>
<g>
	<g>
		<path class="st0" d="M491.6,213c-18.1,0-32.9-14.4-32.9-32l0-0.5c1.2-18.6,12.2-30.9,28.1-32c0.1-2.1,0.9-4.4,2.3-6.2l0.3-0.4
			c1.1-1.3,2.1-2.4,3-3.4c-1-3.3-1.5-6.4-1.5-9.5c0-13,8.8-23.5,19.6-23.5c8.4,0,14.7,6.4,15.3,15.5l0,0.5c0,8.2-4.2,15.8-8.1,21
			c0.6,1.1,1.2,2.2,1.8,3.2c6.4,11.5,10.2,18.4,10.4,29.8l0,0.1l0,0.1C529.5,197.4,513.4,213,491.6,213z M480.2,181.2
			c0.1,6.5,5.9,10.4,11.4,10.4c7.6,0,13.2-3.5,15.6-9.4c-1.6,0.9-3.4,1.4-5.3,1.4c-5.9,0-10.6-4.6-10.7-10.4
			c-0.2-2.1-1.5-3.2-1.9-3.2C483.2,169.9,480.6,175.9,480.2,181.2z"/>
	</g>
</g>
<g>
	<g>
		<path class="st1" d="M365.3,62.9"/>
	</g>
</g>
<g>
	<g>
		<path class="st1" d="M365.3,62.9"/>
	</g>
</g>
<g>
	<g>
		<path class="st1" d="M365.3,62.9"/>
	</g>
</g>
<g>
	<g>
		<path class="st1" d="M365.3,62.9"/>
	</g>
</g>
<g>
	<g>
		<path class="st2" d="M365.3,62.9"/>
	</g>
</g>
<g>
	<g>
		<g>
			<path class="st3" d="M576.9,151.5c-0.2,0-0.5,0-0.8-0.1c-1.2-0.2-2.2-1-2.8-2.1l-39.2-73.6c-0.9-1.7-0.5-3.8,1-5
				c-5.7-3.5-8.1-6.8-7.4-10.5c1-5.5,8.1-7.9,22.9-7.9c11.9,0,27.3,1.7,43.5,4.8c16.1,3.1,31.1,7.1,42.2,11.5
				c13.8,5.4,19.5,10.2,18.4,15.7l-0.2,1c-0.2,0.9-0.6,1.7-1.3,2.3l-73.7,62.9C578.8,151.2,577.9,151.5,576.9,151.5z M542.6,74.5
				l35.5,66.6l57.4-49c-12.1,0.4-29.1-1.3-47.1-4.7c-16.1-3.1-31.1-7.1-42.2-11.5C544.9,75.5,543.7,75,542.6,74.5z M637.1,84.1
				c2,0,3.7,1.4,4,3.4l5.2-4.5c-3.6-3.6-21.4-11.7-53.7-17.9c-31.6-6-51-5.1-56.2-3.2c4.1,3.7,21.8,11.6,53.4,17.6
				c18.3,3.5,35.4,5.1,47,4.5C637,84.1,637,84.1,637.1,84.1z"/>
		</g>
	</g>
	<g>
		<g>
			<path class="st3" d="M589,243.7c-0.2,0-0.4,0-0.6,0c-7.9,0-18.2-1.2-29-3.2c-10.8-2-20.8-4.7-28.2-7.6
				c-7.1-2.7-14.1-6.3-13.1-11.8c0.4-2.3,1.8-9.5,36-4.5c2.2,0.3,3.7,2.4,3.4,4.6c-0.3,2.2-2.4,3.7-4.6,3.4
				c-11.9-1.7-19.7-1.8-24-1.4c5,2.6,15.7,6.4,31.9,9.4c16.2,3.1,27.5,3.4,33.1,2.9c-5-2.6-15.7-6.4-31.9-9.4c0,0-0.1,0-0.1,0
				c-2.2-0.4-3.6-2.5-3.2-4.7l12.7-67.2c0.4-2.2,2.5-3.6,4.7-3.2c2.2,0.4,3.6,2.5,3.2,4.7l-12,63.2c9.3,1.9,17.8,4.3,24.3,6.8
				c7.1,2.7,14.1,6.3,13.1,11.8C603.8,242.9,596.4,243.7,589,243.7z"/>
		</g>
	</g>
	<g>
		<g>
			<path class="st4" d="M578.9,141c-1.1,0-2.3-0.5-3.1-1.4c-1.4-1.7-1.2-4.2,0.4-5.7l29.4-25.1c-3.4,0.1-6.9,0.5-10.3,0.8
				c-3.7,0.4-7.2,0.7-10.6,0.8c-4.1,0.1-9.6,0-15.7-0.7l9,16.9c1,2,0.3,4.4-1.7,5.4c-2,1-4.4,0.3-5.4-1.7l-12.8-24
				c-0.7-1.4-0.6-3,0.3-4.3c0.9-1.2,2.5-1.9,4-1.6c8.5,1.7,16.7,1.9,22.1,1.8c3.1-0.1,6.4-0.4,9.9-0.8c7.3-0.8,14.9-1.5,22,0
				c1.5,0.3,2.7,1.5,3.1,2.9c0.4,1.5-0.1,3.1-1.3,4.1L581.5,140C580.8,140.7,579.8,141,578.9,141z"/>
		</g>
	</g>
	<g>
		<g>
			<path class="st0" d="M561.5,70.4c-1.7,0-3.3-1.1-3.8-2.8l-6.5-20c-0.7-2.1,0.5-4.4,2.6-5.1c2.1-0.7,4.4,0.5,5.1,2.6l6.5,20
				c0.7,2.1-0.5,4.4-2.6,5.1C562.3,70.3,561.9,70.4,561.5,70.4z"/>
		</g>
	</g>
	<g>
		<g>
			<path class="st0" d="M565.1,76c-1.7,0-3.2-1-3.8-2.7l-3.6-10.5c-0.7-2.1,0.4-4.4,2.5-5.1c2.1-0.7,4.4,0.4,5.1,2.5l3.6,10.5
				c0.7,2.1-0.4,4.4-2.5,5.1C566,75.9,565.6,76,565.1,76z"/>
		</g>
	</g>
	<g>
		<g>
			<path class="st0" d="M574.5,104.3c-1.7,0-3.2-1-3.8-2.7l-5.8-16c-0.8-2.1,0.3-4.4,2.4-5.2c2.1-0.8,4.4,0.3,5.2,2.4l5.8,16
				c0.8,2.1-0.3,4.4-2.4,5.2C575.4,104.2,574.9,104.3,574.5,104.3z"/>
		</g>
	</g>
	<g>
		<g>
			<path class="st0" d="M499.5,59.5c-8.2,0-10.7-1.8-11.6-4.7c-1.2-4.2,1.4-8,18.8-15.6c11.4-5,26.9-10.5,43.6-15.4
				c22-6.6,42.5-11.1,54.8-12.3c2.2-0.2,4.2,1.4,4.4,3.6c0.2,2.2-1.4,4.2-3.6,4.4c-11.6,1.1-32,5.7-53.2,12
				c-26,7.8-44.6,15.4-52.8,20c8.4-0.1,25.2-2.2,47.2-7.8c2.2-0.5,4.3,0.8,4.9,2.9c0.5,2.2-0.8,4.3-2.9,4.9
				c-14.3,3.6-28.3,6.3-39.5,7.4C505.6,59.3,502.2,59.5,499.5,59.5z"/>
		</g>
	</g>
	<g>
		<g>
			<path class="st0" d="M564.1,48.2c-1.7,0-3.2-1-3.8-2.7c-0.7-2.1,0.4-4.4,2.5-5.1c25.4-8.9,44.8-19.8,48.7-23.8
				c-0.9-0.9-6.2-4.5-34.7-6.9c-13.7-1.1-27-1.5-31.1-1.6c-6.1,4.2-37.2,25.7-47.7,38.6c-1.4,1.7-3.9,2-5.7,0.6
				c-1.7-1.4-2-3.9-0.6-5.7c12.3-15.2,48.9-39.9,50.5-40.9c0.7-0.5,1.5-0.7,2.3-0.7c0.2,0,17.3,0.2,34.6,1.7
				c32.9,2.9,38.7,7.7,40.1,12.4l0.4,1.4c0.9,3.1,0.4,6.8-16.7,16.1c-10.6,5.7-24.3,11.7-37.6,16.3C565,48.1,564.6,48.2,564.1,48.2z
				"/>
		</g>
	</g>
	<g>
		<g>
			<path class="st3" d="M576.9,151.5c-0.2,0-0.5,0-0.8-0.1c-1.2-0.2-2.2-1-2.8-2.1l-39.2-73.6c-0.9-1.7-0.5-3.8,1-5
				c-5.7-3.5-8.1-6.8-7.4-10.5c1-5.5,8.1-7.9,22.9-7.9c11.9,0,27.3,1.7,43.5,4.8c16.1,3.1,31.1,7.1,42.2,11.5
				c13.8,5.4,19.5,10.2,18.4,15.7l-0.2,1c-0.2,0.9-0.6,1.7-1.3,2.3l-73.7,62.9C578.8,151.2,577.9,151.5,576.9,151.5z M542.6,74.5
				l35.5,66.6l57.4-49c-12.1,0.4-29.1-1.3-47.1-4.7c-16.1-3.1-31.1-7.1-42.2-11.5C544.9,75.5,543.7,75,542.6,74.5z M637.1,84.1
				c2,0,3.7,1.4,4,3.4l5.2-4.5c-3.6-3.6-21.4-11.7-53.7-17.9c-31.6-6-51-5.1-56.2-3.2c4.1,3.7,21.8,11.6,53.4,17.6
				c18.3,3.5,35.4,5.1,47,4.5C637,84.1,637,84.1,637.1,84.1z"/>
		</g>
	</g>
	<g>
		<g>
			<path class="st3" d="M589,243.7c-0.2,0-0.4,0-0.6,0c-7.9,0-18.2-1.2-29-3.2c-10.8-2-20.8-4.7-28.2-7.6
				c-7.1-2.7-14.1-6.3-13.1-11.8c0.4-2.3,1.8-9.5,36-4.5c2.2,0.3,3.7,2.4,3.4,4.6c-0.3,2.2-2.4,3.7-4.6,3.4
				c-11.9-1.7-19.7-1.8-24-1.4c5,2.6,15.7,6.4,31.9,9.4c16.2,3.1,27.5,3.4,33.1,2.9c-5-2.6-15.7-6.4-31.9-9.4c0,0-0.1,0-0.1,0
				c-2.2-0.4-3.6-2.5-3.2-4.7l12.7-67.2c0.4-2.2,2.5-3.6,4.7-3.2c2.2,0.4,3.6,2.5,3.2,4.7l-12,63.2c9.3,1.9,17.8,4.3,24.3,6.8
				c7.1,2.7,14.1,6.3,13.1,11.8C603.8,242.9,596.4,243.7,589,243.7z"/>
		</g>
	</g>
	<g>
		<g>
			<path class="st4" d="M578.9,141c-1.1,0-2.3-0.5-3.1-1.4c-1.4-1.7-1.2-4.2,0.4-5.7l29.4-25.1c-3.4,0.1-6.9,0.5-10.3,0.8
				c-3.7,0.4-7.2,0.7-10.6,0.8c-4.1,0.1-9.6,0-15.7-0.7l9,16.9c1,2,0.3,4.4-1.7,5.4c-2,1-4.4,0.3-5.4-1.7l-12.8-24
				c-0.7-1.4-0.6-3,0.3-4.3c0.9-1.2,2.5-1.9,4-1.6c8.5,1.7,16.7,1.9,22.1,1.8c3.1-0.1,6.4-0.4,9.9-0.8c7.3-0.8,14.9-1.5,22,0
				c1.5,0.3,2.7,1.5,3.1,2.9c0.4,1.5-0.1,3.1-1.3,4.1L581.5,140C580.8,140.7,579.8,141,578.9,141z"/>
		</g>
	</g>
	<g>
		<g>
			<path class="st0" d="M561.5,70.4c-1.7,0-3.3-1.1-3.8-2.8l-6.5-20c-0.7-2.1,0.5-4.4,2.6-5.1c2.1-0.7,4.4,0.5,5.1,2.6l6.5,20
				c0.7,2.1-0.5,4.4-2.6,5.1C562.3,70.3,561.9,70.4,561.5,70.4z"/>
		</g>
	</g>
	<g>
		<g>
			<path class="st0" d="M565.1,76c-1.7,0-3.2-1-3.8-2.7l-3.6-10.5c-0.7-2.1,0.4-4.4,2.5-5.1c2.1-0.7,4.4,0.4,5.1,2.5l3.6,10.5
				c0.7,2.1-0.4,4.4-2.5,5.1C566,75.9,565.6,76,565.1,76z"/>
		</g>
	</g>
	<g>
		<g>
			<path class="st0" d="M574.5,104.3c-1.7,0-3.2-1-3.8-2.7l-5.8-16c-0.8-2.1,0.3-4.4,2.4-5.2c2.1-0.8,4.4,0.3,5.2,2.4l5.8,16
				c0.8,2.1-0.3,4.4-2.4,5.2C575.4,104.2,574.9,104.3,574.5,104.3z"/>
		</g>
	</g>
	<g>
		<g>
			<path class="st0" d="M499.5,59.5c-8.2,0-10.7-1.8-11.6-4.7c-1.2-4.2,1.4-8,18.8-15.6c11.4-5,26.9-10.5,43.6-15.4
				c22-6.6,42.5-11.1,54.8-12.3c2.2-0.2,4.2,1.4,4.4,3.6c0.2,2.2-1.4,4.2-3.6,4.4c-11.6,1.1-32,5.7-53.2,12
				c-26,7.8-44.6,15.4-52.8,20c8.4-0.1,25.2-2.2,47.2-7.8c2.2-0.5,4.3,0.8,4.9,2.9c0.5,2.2-0.8,4.3-2.9,4.9
				c-14.3,3.6-28.3,6.3-39.5,7.4C505.6,59.3,502.2,59.5,499.5,59.5z"/>
		</g>
	</g>
	<g>
		<g>
			<path class="st0" d="M564.1,48.2c-1.7,0-3.2-1-3.8-2.7c-0.7-2.1,0.4-4.4,2.5-5.1c25.4-8.9,44.8-19.8,48.7-23.8
				c-0.9-0.9-6.2-4.5-34.7-6.9c-13.7-1.1-27-1.5-31.1-1.6c-6.1,4.2-37.2,25.7-47.7,38.6c-1.4,1.7-3.9,2-5.7,0.6
				c-1.7-1.4-2-3.9-0.6-5.7c12.3-15.2,48.9-39.9,50.5-40.9c0.7-0.5,1.5-0.7,2.3-0.7c0.2,0,17.3,0.2,34.6,1.7
				c32.9,2.9,38.7,7.7,40.1,12.4l0.4,1.4c0.9,3.1,0.4,6.8-16.7,16.1c-10.6,5.7-24.3,11.7-37.6,16.3C565,48.1,564.6,48.2,564.1,48.2z
				"/>
		</g>
	</g>
	<g>
		<g>
			<path class="st3" d="M576.9,151.5c-0.2,0-0.5,0-0.8-0.1c-1.2-0.2-2.2-1-2.8-2.1l-39.2-73.6c-0.9-1.7-0.5-3.8,1-5
				c-5.7-3.5-8.1-6.8-7.4-10.5c1-5.5,8.1-7.9,22.9-7.9c11.9,0,27.3,1.7,43.5,4.8c16.1,3.1,31.1,7.1,42.2,11.5
				c13.8,5.4,19.5,10.2,18.4,15.7l-0.2,1c-0.2,0.9-0.6,1.7-1.3,2.3l-73.7,62.9C578.8,151.2,577.9,151.5,576.9,151.5z M542.6,74.5
				l35.5,66.6l57.4-49c-12.1,0.4-29.1-1.3-47.1-4.7c-16.1-3.1-31.1-7.1-42.2-11.5C544.9,75.5,543.7,75,542.6,74.5z M637.1,84.1
				c2,0,3.7,1.4,4,3.4l5.2-4.5c-3.6-3.6-21.4-11.7-53.7-17.9c-31.6-6-51-5.1-56.2-3.2c4.1,3.7,21.8,11.6,53.4,17.6
				c18.3,3.5,35.4,5.1,47,4.5C637,84.1,637,84.1,637.1,84.1z"/>
		</g>
	</g>
	<g>
		<g>
			<path class="st3" d="M589,243.7c-0.2,0-0.4,0-0.6,0c-7.9,0-18.2-1.2-29-3.2c-10.8-2-20.8-4.7-28.2-7.6
				c-7.1-2.7-14.1-6.3-13.1-11.8c0.4-2.3,1.8-9.5,36-4.5c2.2,0.3,3.7,2.4,3.4,4.6c-0.3,2.2-2.4,3.7-4.6,3.4
				c-11.9-1.7-19.7-1.8-24-1.4c5,2.6,15.7,6.4,31.9,9.4c16.2,3.1,27.5,3.4,33.1,2.9c-5-2.6-15.7-6.4-31.9-9.4c0,0-0.1,0-0.1,0
				c-2.2-0.4-3.6-2.5-3.2-4.7l12.7-67.2c0.4-2.2,2.5-3.6,4.7-3.2c2.2,0.4,3.6,2.5,3.2,4.7l-12,63.2c9.3,1.9,17.8,4.3,24.3,6.8
				c7.1,2.7,14.1,6.3,13.1,11.8C603.8,242.9,596.4,243.7,589,243.7z"/>
		</g>
	</g>
	<g>
		<g>
			<path class="st4" d="M578.9,141c-1.1,0-2.3-0.5-3.1-1.4c-1.4-1.7-1.2-4.2,0.4-5.7l29.4-25.1c-3.4,0.1-6.9,0.5-10.3,0.8
				c-3.7,0.4-7.2,0.7-10.6,0.8c-4.1,0.1-9.6,0-15.7-0.7l9,16.9c1,2,0.3,4.4-1.7,5.4c-2,1-4.4,0.3-5.4-1.7l-12.8-24
				c-0.7-1.4-0.6-3,0.3-4.3c0.9-1.2,2.5-1.9,4-1.6c8.5,1.7,16.7,1.9,22.1,1.8c3.1-0.1,6.4-0.4,9.9-0.8c7.3-0.8,14.9-1.5,22,0
				c1.5,0.3,2.7,1.5,3.1,2.9c0.4,1.5-0.1,3.1-1.3,4.1L581.5,140C580.8,140.7,579.8,141,578.9,141z"/>
		</g>
	</g>
	<g>
		<g>
			<path class="st0" d="M561.5,70.4c-1.7,0-3.3-1.1-3.8-2.8l-6.5-20c-0.7-2.1,0.5-4.4,2.6-5.1c2.1-0.7,4.4,0.5,5.1,2.6l6.5,20
				c0.7,2.1-0.5,4.4-2.6,5.1C562.3,70.3,561.9,70.4,561.5,70.4z"/>
		</g>
	</g>
	<g>
		<g>
			<path class="st0" d="M565.1,76c-1.7,0-3.2-1-3.8-2.7l-3.6-10.5c-0.7-2.1,0.4-4.4,2.5-5.1c2.1-0.7,4.4,0.4,5.1,2.5l3.6,10.5
				c0.7,2.1-0.4,4.4-2.5,5.1C566,75.9,565.6,76,565.1,76z"/>
		</g>
	</g>
	<g>
		<g>
			<path class="st0" d="M574.5,104.3c-1.7,0-3.2-1-3.8-2.7l-5.8-16c-0.8-2.1,0.3-4.4,2.4-5.2c2.1-0.8,4.4,0.3,5.2,2.4l5.8,16
				c0.8,2.1-0.3,4.4-2.4,5.2C575.4,104.2,574.9,104.3,574.5,104.3z"/>
		</g>
	</g>
	<g>
		<g>
			<path class="st0" d="M499.5,59.5c-8.2,0-10.7-1.8-11.6-4.7c-1.2-4.2,1.4-8,18.8-15.6c11.4-5,26.9-10.5,43.6-15.4
				c22-6.6,42.5-11.1,54.8-12.3c2.2-0.2,4.2,1.4,4.4,3.6c0.2,2.2-1.4,4.2-3.6,4.4c-11.6,1.1-32,5.7-53.2,12
				c-26,7.8-44.6,15.4-52.8,20c8.4-0.1,25.2-2.2,47.2-7.8c2.2-0.5,4.3,0.8,4.9,2.9c0.5,2.2-0.8,4.3-2.9,4.9
				c-14.3,3.6-28.3,6.3-39.5,7.4C505.6,59.3,502.2,59.5,499.5,59.5z"/>
		</g>
	</g>
	<g>
		<g>
			<path class="st0" d="M564.1,48.2c-1.7,0-3.2-1-3.8-2.7c-0.7-2.1,0.4-4.4,2.5-5.1c25.4-8.9,44.8-19.8,48.7-23.8
				c-0.9-0.9-6.2-4.5-34.7-6.9c-13.7-1.1-27-1.5-31.1-1.6c-6.1,4.2-37.2,25.7-47.7,38.6c-1.4,1.7-3.9,2-5.7,0.6
				c-1.7-1.4-2-3.9-0.6-5.7c12.3-15.2,48.9-39.9,50.5-40.9c0.7-0.5,1.5-0.7,2.3-0.7c0.2,0,17.3,0.2,34.6,1.7
				c32.9,2.9,38.7,7.7,40.1,12.4l0.4,1.4c0.9,3.1,0.4,6.8-16.7,16.1c-10.6,5.7-24.3,11.7-37.6,16.3C565,48.1,564.6,48.2,564.1,48.2z
				"/>
		</g>
	</g>
	<g>
		<g>
			<path class="st3" d="M576.9,151.5c-0.2,0-0.5,0-0.8-0.1c-1.2-0.2-2.2-1-2.8-2.1l-39.2-73.6c-0.9-1.7-0.5-3.8,1-5
				c-5.7-3.5-8.1-6.8-7.4-10.5c1-5.5,8.1-7.9,22.9-7.9c11.9,0,27.3,1.7,43.5,4.8c16.1,3.1,31.1,7.1,42.2,11.5
				c13.8,5.4,19.5,10.2,18.4,15.7l-0.2,1c-0.2,0.9-0.6,1.7-1.3,2.3l-73.7,62.9C578.8,151.2,577.9,151.5,576.9,151.5z M542.6,74.5
				l35.5,66.6l57.4-49c-12.1,0.4-29.1-1.3-47.1-4.7c-16.1-3.1-31.1-7.1-42.2-11.5C544.9,75.5,543.7,75,542.6,74.5z M637.1,84.1
				c2,0,3.7,1.4,4,3.4l5.2-4.5c-3.6-3.6-21.4-11.7-53.7-17.9c-31.6-6-51-5.1-56.2-3.2c4.1,3.7,21.8,11.6,53.4,17.6
				c18.3,3.5,35.4,5.1,47,4.5C637,84.1,637,84.1,637.1,84.1z"/>
		</g>
	</g>
	<g>
		<g>
			<path class="st3" d="M589,243.7c-0.2,0-0.4,0-0.6,0c-7.9,0-18.2-1.2-29-3.2c-10.8-2-20.8-4.7-28.2-7.6
				c-7.1-2.7-14.1-6.3-13.1-11.8c0.4-2.3,1.8-9.5,36-4.5c2.2,0.3,3.7,2.4,3.4,4.6c-0.3,2.2-2.4,3.7-4.6,3.4
				c-11.9-1.7-19.7-1.8-24-1.4c5,2.6,15.7,6.4,31.9,9.4c16.2,3.1,27.5,3.4,33.1,2.9c-5-2.6-15.7-6.4-31.9-9.4c0,0-0.1,0-0.1,0
				c-2.2-0.4-3.6-2.5-3.2-4.7l12.7-67.2c0.4-2.2,2.5-3.6,4.7-3.2c2.2,0.4,3.6,2.5,3.2,4.7l-12,63.2c9.3,1.9,17.8,4.3,24.3,6.8
				c7.1,2.7,14.1,6.3,13.1,11.8C603.8,242.9,596.4,243.7,589,243.7z"/>
		</g>
	</g>
	<g>
		<g>
			<path class="st4" d="M578.9,141c-1.1,0-2.3-0.5-3.1-1.4c-1.4-1.7-1.2-4.2,0.4-5.7l29.4-25.1c-3.4,0.1-6.9,0.5-10.3,0.8
				c-3.7,0.4-7.2,0.7-10.6,0.8c-4.1,0.1-9.6,0-15.7-0.7l9,16.9c1,2,0.3,4.4-1.7,5.4c-2,1-4.4,0.3-5.4-1.7l-12.8-24
				c-0.7-1.4-0.6-3,0.3-4.3c0.9-1.2,2.5-1.9,4-1.6c8.5,1.7,16.7,1.9,22.1,1.8c3.1-0.1,6.4-0.4,9.9-0.8c7.3-0.8,14.9-1.5,22,0
				c1.5,0.3,2.7,1.5,3.1,2.9c0.4,1.5-0.1,3.1-1.3,4.1L581.5,140C580.8,140.7,579.8,141,578.9,141z"/>
		</g>
	</g>
	<g>
		<g>
			<path class="st0" d="M565.1,76c-1.7,0-3.2-1-3.8-2.7l-3.6-10.5c-0.7-2.1,0.4-4.4,2.5-5.1c2.1-0.7,4.4,0.4,5.1,2.5l3.6,10.5
				c0.7,2.1-0.4,4.4-2.5,5.1C566,75.9,565.6,76,565.1,76z"/>
		</g>
	</g>
	<g>
		<g>
			<path class="st0" d="M574.5,104.3c-1.7,0-3.2-1-3.8-2.7l-5.8-16c-0.8-2.1,0.3-4.4,2.4-5.2c2.1-0.8,4.4,0.3,5.2,2.4l5.8,16
				c0.8,2.1-0.3,4.4-2.4,5.2C575.4,104.2,574.9,104.3,574.5,104.3z"/>
		</g>
	</g>
	<g>
		<g>
			<path class="st0" d="M499.5,59.5c-8.2,0-10.7-1.8-11.6-4.7c-1.2-4.2,1.4-8,18.8-15.6c11.4-5,26.9-10.5,43.6-15.4
				c22-6.6,42.5-11.1,54.8-12.3c2.2-0.2,4.2,1.4,4.4,3.6c0.2,2.2-1.4,4.2-3.6,4.4c-11.6,1.1-32,5.7-53.2,12
				c-26,7.8-44.6,15.4-52.8,20c8.4-0.1,25.2-2.2,47.2-7.8c2.2-0.5,4.3,0.8,4.9,2.9c0.5,2.2-0.8,4.3-2.9,4.9
				c-14.3,3.6-28.3,6.3-39.5,7.4C505.6,59.3,502.2,59.5,499.5,59.5z"/>
		</g>
	</g>
	<g>
		<g>
			<path class="st0" d="M564.1,48.2c-1.7,0-3.2-1-3.8-2.7c-0.7-2.1,0.4-4.4,2.5-5.1c25.4-8.9,44.8-19.8,48.7-23.8
				c-0.9-0.9-6.2-4.5-34.7-6.9c-13.7-1.1-27-1.5-31.1-1.6c-6.1,4.2-37.2,25.7-47.7,38.6c-1.4,1.7-3.9,2-5.7,0.6
				c-1.7-1.4-2-3.9-0.6-5.7c12.3-15.2,48.9-39.9,50.5-40.9c0.7-0.5,1.5-0.7,2.3-0.7c0.2,0,17.3,0.2,34.6,1.7
				c32.9,2.9,38.7,7.7,40.1,12.4l0.4,1.4c0.9,3.1,0.4,6.8-16.7,16.1c-10.6,5.7-24.3,11.7-37.6,16.3C565,48.1,564.6,48.2,564.1,48.2z
				"/>
		</g>
	</g>
	<g>
		<g>
			<path class="st1" d="M561.5,234.8"/>
		</g>
	</g>
	<g>
		<g>
			<path class="st1" d="M561.5,234.8"/>
		</g>
	</g>
	<g>
		<g>
			<path class="st1" d="M561.5,234.8"/>
		</g>
	</g>
	<g>
		<g>
			<path class="st1" d="M561.5,234.8"/>
		</g>
	</g>
	<g>
		<g>
			<path class="st0" d="M561.5,67.9c-0.6,0-1.2-0.4-1.4-1l-6.5-20c-0.3-0.8,0.2-1.6,1-1.9c0.8-0.3,1.6,0.2,1.9,1l6.5,20
				c0.3,0.8-0.2,1.6-1,1.9C561.8,67.9,561.6,67.9,561.5,67.9z"/>
		</g>
	</g>
	<g>
		<g>
			<path class="st2" d="M561.5,234.8"/>
		</g>
	</g>
	<g>
		<g>
			<path class="st5" d="M576.9,148.5c-0.1,0-0.1,0-0.2,0c-0.3-0.1-0.6-0.2-0.7-0.5l-39.2-73.6c-0.3-0.5-0.1-1.1,0.4-1.4
				c0.5-0.3,1.1-0.1,1.4,0.4l38.6,72.5l72.4-61.9l0.1-0.6c0.9-4.8-22.1-14.7-56.6-21.3c-15.8-3-30.9-4.7-42.5-4.7
				c-0.1,0-0.1,0-0.2,0c-12.6,0-17.4,2-17.7,3.8c-0.3,1.8,3.5,5.5,15.3,10.1c10.8,4.2,25.5,8.2,41.3,11.2
				c18.5,3.5,35.9,5.2,47.7,4.6c0.5,0,1,0.4,1.1,1c0,0.6-0.4,1-1,1.1c-12,0.6-29.5-1.1-48.2-4.6c-16-3-30.8-7-41.6-11.3
				c-11.7-4.6-17.2-8.7-16.6-12.3c0.7-3.6,7.4-5.4,19.9-5.4c11.7,0,26.9,1.7,42.9,4.7c29.3,5.6,59.7,15.7,58.2,23.6l-0.2,1
				c0,0.2-0.2,0.4-0.3,0.6l-73.7,62.9C577.4,148.4,577.2,148.5,576.9,148.5z"/>
		</g>
	</g>
	<g>
		<g>
			<path class="st5" d="M588.9,240.7c-8.7,0-20.1-1.5-29-3.2c-10.6-2-20.4-4.7-27.6-7.4c-11.9-4.6-11.4-7.5-11.2-8.4
				c1.2-6.3,27.4-2.9,32.6-2.1c0.6,0.1,0.9,0.6,0.9,1.1c-0.1,0.6-0.6,0.9-1.1,0.9c-20.8-3-30.1-1.2-30.4,0.5c-0.1,0.8,1.8,3,9.9,6.2
				c7.1,2.8,16.8,5.4,27.3,7.4c25.2,4.8,39.2,3.2,39.6,1c0.4-2.2-12-8.7-37.2-13.5c-0.5-0.1-1-0.6-0.9-1.2l12.7-67.2
				c0.1-0.5,0.6-0.9,1.2-0.8c0.5,0.1,0.9,0.6,0.8,1.2L564,221.2c16.3,3.2,39,9.8,37.9,15.7C601.4,239.7,596.1,240.7,588.9,240.7z"/>
		</g>
	</g>
	<g>
		<g>
			<path class="st5" d="M578.9,138c-0.3,0-0.6-0.1-0.8-0.4c-0.4-0.4-0.3-1.1,0.1-1.4l35.2-30c-5.8-0.8-12.2-0.2-18.4,0.5
				c-3.6,0.4-7.1,0.7-10.3,0.8c-5.2,0.1-13-0.1-21.1-1.5l11.8,22.2c0.3,0.5,0.1,1.1-0.4,1.4c-0.5,0.3-1.1,0.1-1.4-0.4l-12.8-24
				c-0.2-0.3-0.2-0.8,0.1-1.1c0.2-0.3,0.6-0.5,1-0.4c8.7,1.7,17.2,1.9,22.8,1.8c3.2-0.1,6.6-0.4,10.2-0.8c7.1-0.7,14.4-1.5,21.1-0.1
				c0.4,0.1,0.7,0.4,0.8,0.7c0.1,0.4,0,0.8-0.3,1l-36.8,31.4C579.4,137.9,579.1,138,578.9,138z"/>
		</g>
	</g>
	<g>
		<g>
			<path class="st5" d="M561.5,67.4c-0.4,0-0.8-0.3-1-0.7l-6.5-20c-0.2-0.5,0.1-1.1,0.6-1.3c0.5-0.2,1.1,0.1,1.3,0.6l6.5,20
				c0.2,0.5-0.1,1.1-0.6,1.3C561.7,67.4,561.6,67.4,561.5,67.4z"/>
		</g>
	</g>
	<g>
		<g>
			<path class="st5" d="M565.1,72.9c-0.4,0-0.8-0.3-1-0.7l-3.6-10.5c-0.2-0.5,0.1-1.1,0.6-1.3c0.5-0.2,1.1,0.1,1.3,0.6l3.6,10.5
				c0.2,0.5-0.1,1.1-0.6,1.3C565.3,72.9,565.2,72.9,565.1,72.9z"/>
		</g>
	</g>
	<g>
		<g>
			<path class="st5" d="M574.5,101.3c-0.4,0-0.8-0.3-0.9-0.7l-5.8-16c-0.2-0.5,0.1-1.1,0.6-1.3c0.5-0.2,1.1,0.1,1.3,0.6l5.8,16
				c0.2,0.5-0.1,1.1-0.6,1.3C574.7,101.3,574.6,101.3,574.5,101.3z"/>
		</g>
	</g>
	<g>
		<g>
			<path class="st5" d="M499.9,56.4c-5.1,0-8.5-0.7-9-2.5c-0.3-1.1-1.2-4,17.1-12c11.3-4.9,26.7-10.4,43.3-15.3
				c21.8-6.5,42.1-11,54.2-12.2c0.6,0,1,0.4,1.1,0.9c0.1,0.6-0.4,1-0.9,1.1c-12,1.1-32.1,5.6-53.8,12.1
				c-16.4,4.9-31.5,10.2-42.8,15.1c-16.3,7.1-16.3,9.7-16.3,9.7c1.1,2.2,22.9,1.4,55.1-6.8c0.5-0.1,1.1,0.2,1.2,0.7
				c0.1,0.5-0.2,1.1-0.7,1.2C532.5,52.5,511.6,56.4,499.9,56.4z"/>
		</g>
	</g>
	<g>
		<g>
			<path class="st5" d="M564.1,45.2c-0.4,0-0.8-0.3-1-0.7c-0.2-0.5,0.1-1.1,0.6-1.3c29.6-10.4,51.2-23.4,51.1-26.2l-0.4-1.4
				C612.4,8.5,570.8,5.4,544.9,5c-3.3,2.3-37.8,25.8-49.1,39.7c-0.3,0.4-1,0.5-1.4,0.1c-0.4-0.3-0.5-1-0.1-1.4
				c12-14.9,48.3-39.3,49.8-40.3c0.2-0.1,0.3-0.2,0.6-0.2c7,0.1,68.6,1.2,71.8,12l0.4,1.4c1.6,5.3-26.8,19.8-52.4,28.7
				C564.3,45.1,564.2,45.2,564.1,45.2z"/>
		</g>
	</g>
</g>
<g>
	<g>
		<path class="st5" d="M117.7,169.9c-12.3,29.6-28.8,47.5-55.4,47.5c-22.1,0-33.7-13.8-33.7-34.9c0-10.4,3.1-22.1,7.2-34.9
			c-17.4-4.1-28.6-15.8-28.6-33.2c0-11.6,4.8-24,12.3-33.2c0.7-0.9,1.7-1.2,2.7-1.2c1.9,0,3.6,1.4,3.6,3.6c0,0.9-0.2,1.7-0.9,2.4
			c-6.1,6.8-10.6,18.7-10.6,28.1c0,15.2,9.9,23.7,24,26.7c9.5-27.3,29.1-61,53.3-60.5c14,0.3,21.1,10.4,21.1,23.8
			c0,28.6-33.4,45.1-62.3,45.1c-2.6,0-4.6-0.2-7.5-0.5c-3.9,12.6-7.2,23.8-7.2,33.7c0,18.2,9.9,27.8,26.6,27.8
			c23.5,0,37.6-16,48.7-43.1c0.7-1.9,2.9-2.7,4.6-2C117.5,166,118.4,168.1,117.7,169.9z M49.9,142.2c25.2,0,55.7-13.8,55.7-38
			c0-9.7-4.6-16.7-14-16.7c-20.1,0-38.2,32-46.2,54.5C46.8,142.2,48.4,142.2,49.9,142.2z"/>
	</g>
</g>
<g>
	<g>
		<path class="st5" d="M158.6,195c-4.8,0-9.2-1.5-12.9-4.6c-6.3,8.5-15,15.5-23.2,15.5c-11.1,0-14.8-7.3-14.8-17.2
			c0-19.8,8.9-36.3,14.5-45.5c7.2-11.9,15.5-17.9,24-17.9c11.2,0.3,17,8,17,18.2c0,10.7-5.5,27.4-13.3,40.7c1.9,2.4,4.8,3.6,8.7,3.6
			c7.2,0,13.1-6.5,19.1-20.6c0.5-1.4,1.9-2.2,3.2-2.2c2.6,0,4.4,2.6,3.4,4.9C176.8,187.1,168.8,195,158.6,195z M148.2,169.6
			c-0.5,1.4-0.5,2.7-0.7,3.9c5.3-10.6,8.5-22.3,8.5-30.2c0-7.2-4.3-10.9-10.1-10.9c-6.5,0-12.6,6-17.5,14.5
			c-4.4,7.3-13.5,23.8-13.5,41.4c0,6.1,2,10.4,7.5,10.4c6.3,0,13.5-6.8,19.1-14.8c-1.9-4.4-1.5-11.9-0.3-16.2
			c0.3-1.7,1.9-2.7,3.6-2.7C147.2,165,148.9,167.2,148.2,169.6z"/>
	</g>
</g>
<g>
	<g>
		<path class="st5" d="M238.6,168.7c0,0.5-0.2,0.9-0.3,1.4c-10.4,23.2-22.7,35.8-42.4,35.8c-12.4,0-20.6-9.4-20.6-23.3
			c0-26.6,21.3-57.2,38.7-57.2c9.7,0,14.5,6.6,14.5,16c0,7.7-3.7,15.5-7.7,15.5c-2.2,0-3.6-1.2-3.6-3.4c0-2.4,4.1-5.3,4.1-12.1
			c0-6-2.2-8.9-7.3-8.9c-13.3,0-31.5,29.8-31.5,50.3c0,9.5,5.5,16,13.6,16c16.5,0,27.1-11.9,35.6-31.5c0.9-1.7,2.9-2.6,4.8-1.9
			C237.8,166,238.6,167.4,238.6,168.7z"/>
	</g>
</g>
<g>
	<g>
		<path class="st5" d="M221.6,205.7c-1.9-0.7-2.9-2.7-2.2-4.6c28.4-79.2,35.1-98.1,36.5-102c0.5-1.4,1.9-2.2,3.2-2.2
			c2.7,0,4.4,2.6,3.6,4.8c-14.8,41.7-25,70.9-36.5,101.7C225.5,205,223.5,206.2,221.6,205.7z M305.9,168.6c0,0.5-0.2,1-0.3,1.5
			c-8.2,18.2-17.2,35.8-31.3,35.8c-7.8,0-12.6-6.5-12.6-12.9c0-3.7,0.5-7.5,1-11.4c0.5-3.4,1-7,0.9-10.1c-0.2-4.4-1.7-7.7-7.5-7.7
			c-4.9,0-7.5,5.1-10.7,5.1c-3.7,0-4.6-3.7-2-6.3c2.2-2.2,17.9-16,40.5-36.8c1-0.9,1.5-0.9,2.4-0.9c2.6,0,3.7,2.2,3.7,3.6
			c0,1-0.5,1.9-1.2,2.6L260.3,157c8,1.4,10.2,7.2,10.4,14.5c0,3.9-1.9,17-1.9,21c0,3.1,1.9,6.3,5.5,6.3c10.1,0,18.2-16.9,24.7-31.5
			c0.7-1.4,1.9-2.2,3.2-2.2c0.5,0,1,0.2,1.5,0.3C305.1,165.8,305.9,167.2,305.9,168.6z"/>
	</g>
</g>
<g>
	<g>
		<path class="st5" d="M341.4,168.6c0,0.5-0.2,1-0.3,1.5c-9.9,21.3-19.4,35.8-35.1,35.8c-8.2,0-12.6-6.1-12.6-14.3
			c0-6.3,4.3-21.1,9.7-35.1l8.7-24.4H301c-2,0-3.6-1.5-3.6-3.6c0-1.9,1.5-3.6,3.6-3.6h13.1c0.3-0.7,8.7-24.7,8.9-25.4
			c0.5-1.5,1.9-2.4,3.4-2.4c2.6,0,4.3,2.6,3.4,4.8c0.5-1-6.8,19.8-8,23h11.4c2,0,3.6,1.7,3.6,3.6c0,2-1.5,3.6-3.6,3.6h-14
			c-1,3.2-3.9,11.1-9.5,26.9c-7,19.8-9.2,27.6-9.2,32.5c0,4.6,2,7.2,5.5,7.2c12.3,0,20.4-14.1,28.4-31.7c0.7-1.2,2-2,3.4-2
			c0.5,0,1,0.2,1.5,0.3C340.5,166,341.4,167.2,341.4,168.6z"/>
	</g>
</g>
<g>
	<g>
		<path class="st5" d="M410,168.6c0,0.5-0.2,1-0.3,1.5l-0.2,0.5c-6.5,14.3-15.7,35.3-31,35.3c-8.2,0-12.3-6-12.3-14.3
			c-6.8,9.5-14,14.3-21.3,14.3c-9.5,0-14-8.2-14-18.4c0-22.3,17.2-62.2,37.6-62.2c7.2,0,12.4,2.9,15.5,9c1-2.9,2-5.5,2.9-7.7
			c0.5-1.4,1.9-2.2,3.4-2.2c2.7,0,4.1,2.7,3.2,4.8l-8.5,22.8c-6.1,17.2-11.8,32-11.8,39.5c0,5.1,1.5,7.2,5.1,7.2
			c10.6,0,18.7-18.4,24.4-31l0.2-0.5c0.7-1.4,1.9-2.2,3.2-2.2c0.5,0,1,0.2,1.5,0.3C409.2,166,410,167.2,410,168.6z M375.4,155.8
			l4.1-10.9c-0.3-7.8-4.8-12.4-10.9-12.4c-15.7,0.3-30.2,37-30.5,53.8c0,7.5,1.5,12.4,6.6,12.4C358.6,198.7,368.6,173.2,375.4,155.8
			z"/>
	</g>
</g>
<g>
	<g>
		<path class="st5" d="M441.4,168.6c0,0.5-0.2,1-0.3,1.5c-8.2,18.4-17,35.8-31.3,35.8c-8.2,0-12.6-6.5-12.3-14.3
			c0.5-13.3,12.6-44.5,20.1-63.9c0.5-1.5,1.9-2.4,3.2-2.4c2.2,0,4.4,1.7,3.4,4.6c-16.5,46.5-19.6,54.3-19.6,61.7
			c0,4.9,1.5,7.2,5.1,7.2c10.6,0,18.4-17.5,24.7-31.5c0.7-1.4,2-2.2,3.4-2.2c0.5,0,0.9,0.2,1.4,0.3
			C440.5,165.8,441.4,167.2,441.4,168.6z M421.9,110.8c0-3.2,2.7-5.8,6-5.8c3.2,0,5.8,2.6,5.8,5.8c0,3.2-2.6,5.8-5.8,5.8
			C424.7,116.6,421.9,114,421.9,110.8z"/>
	</g>
</g>
<g>
	<g>
		<path class="st5" d="M476.5,168.6c0,0.5-0.2,1-0.3,1.5c-9.9,21.3-19.4,35.8-35.1,35.8c-8.2,0-12.6-6.1-12.6-14.3
			c0-4.9,1.7-11.1,6-24.5c4.6-13.5,9.7-27.8,14.7-41.9l8.9-25.9c0.7-1.9,2.7-2.7,4.6-2.2c1.9,0.7,2.9,2.7,2.2,4.6l-8.9,25.9
			c-4.8,13.6-9.7,27.3-14.6,41.7c-3.7,11.6-5.6,19.3-5.6,22.3c0,4.6,2,7.2,5.5,7.2c12.3,0,20.4-14.1,28.4-31.7c0.7-1.2,2-2,3.4-2
			c0.5,0,1,0.2,1.5,0.3C475.6,166,476.5,167.2,476.5,168.6z"/>
	</g>
</g>
<g>
	<g>
		<path class="st5" d="M491.6,205.9c-14.1,0-25.7-11.1-25.7-24.9c1-15.3,9.5-25.4,23.2-25.4c8.9,0,16,7.8,16.4,17.2
			c0,2-1.5,3.6-3.6,3.6c-2,0-3.6-1.5-3.6-3.6c-0.3-5.8-4.6-10.1-9-10.1c-9.4,0-15.5,7.8-16.2,18.2c0,10.4,8.7,17.7,18.6,17.7
			c13.8,0,23.7-9,24-23.2c-0.2-7.5-2.7-12.4-11.8-28.3c-1.2,1.2-2.4,2.6-3.4,3.9c-0.7,0.9-1.7,1.4-2.7,1.4c-0.9,0-1.9-0.2-2.6-0.9
			c-0.9-0.7-1.2-1.9-1.2-2.9c0-0.7,0.3-1.5,0.9-2.2c2-2.4,3.7-4.3,5.8-6.3c-1.5-3.6-2.6-7.3-2.6-11.2c0-8.9,5.5-16.4,12.4-16.4
			c4.9,0,7.8,3.9,8.2,8.9c0,6.8-4.3,14.3-9.5,20.3c8.9,16.4,13.5,22.3,13.6,33.9C522.5,194.1,508.8,205.9,491.6,205.9z M511.4,121.5
			c0-2.4-1.9-1.9-3.6-0.2c-2,2-2.6,5.1-2.6,7.5c0,1.9,0.3,3.6,0.9,5.5C508.8,130.6,511.4,125.3,511.4,121.5z"/>
	</g>
</g>
</svg>
